<?xml version="1.0" standalone="no"?>
<!DOCTYPE svg PUBLIC "-//W3C//DTD SVG 20010904//EN"
 "http://www.w3.org/TR/2001/REC-SVG-20010904/DTD/svg10.dtd">
<svg version="1.0" xmlns="http://www.w3.org/2000/svg"
 width="700.000000pt" height="700.000000pt" viewBox="0 0 700.000000 700.000000"
 preserveAspectRatio="xMidYMid meet">
<metadata>
Created by potrace 1.14, written by Peter Selinger 2001-2017
</metadata>
<g transform="translate(0.000000,700.000000) scale(0.100000,-0.100000)"
fill="#000000" stroke="none">
<path d="M2170 6665 l0 -165 -170 0 -170 0 0 -165 0 -165 -165 0 -165 0 0
-170 0 -170 -165 0 -165 0 -2 -497 -3 -498 -167 -3 -168 -2 0 -165 0 -165
-165 0 -165 0 0 -165 0 -165 -165 0 -165 0 0 -670 0 -670 165 0 165 0 0 -165
0 -165 165 0 165 0 0 -165 0 -165 500 0 500 0 2 -167 3 -168 165 0 165 0 3
332 2 333 165 0 165 0 0 165 0 165 165 0 165 0 0 670 0 670 -165 0 -165 0 0
165 0 165 165 0 165 0 0 165 0 165 670 0 670 0 0 -165 0 -165 -335 0 -335 0 0
-165 0 -165 335 0 335 0 0 165 0 165 165 0 165 0 0 165 0 165 500 0 500 0 0
-165 0 -165 165 0 165 0 2 -1332 3 -1333 165 0 165 0 3 333 2 332 165 0 165 0
0 165 0 165 165 0 165 0 0 670 0 670 -165 0 -165 0 0 165 0 165 -165 0 -165 0
0 665 0 665 -170 0 -170 0 0 170 0 170 -165 0 -165 0 0 165 0 165 -165 0 -165
0 0 165 0 165 -1500 0 -1500 0 0 -165z m3000 -330 l0 -165 165 0 165 0 0 -170
0 -170 165 0 165 0 0 -165 0 -165 -165 0 -165 0 0 165 0 165 -332 2 -333 3 -3
168 -2 167 -1165 0 -1165 0 0 -170 0 -170 -165 0 -165 0 0 -165 0 -165 -170 0
-170 0 0 -335 0 -335 -165 0 -165 0 0 500 0 500 165 0 165 0 0 170 0 170 170
0 170 0 0 165 0 165 1500 0 1500 0 0 -165z m-3000 -2000 l0 -165 165 0 165 0
0 -670 0 -670 -165 0 -165 0 0 -165 0 -165 -670 0 -670 0 0 165 0 165 -165 0
-165 0 0 670 0 670 165 0 165 0 0 165 0 165 670 0 670 0 0 -165z m4330 -835
l0 -670 -165 0 -165 0 0 670 0 670 165 0 165 0 0 -670z"/>
<path d="M1170 4000 l0 -170 -170 0 -170 0 0 -330 0 -330 170 0 170 0 0 330 0
330 165 0 165 0 0 170 0 170 -165 0 -165 0 0 -170z"/>
<path d="M3500 3165 l0 -335 165 0 165 0 0 335 0 335 -165 0 -165 0 0 -335z"/>
<path d="M5170 3165 l0 -335 165 0 165 0 0 335 0 335 -165 0 -165 0 0 -335z"/>
<path d="M3830 2335 l0 -165 170 0 170 0 0 -170 0 -170 498 2 497 3 0 165 0
165 -497 3 -498 2 0 165 0 165 -170 0 -170 0 0 -165z"/>
<path d="M5170 2335 l0 -165 165 0 165 0 0 165 0 165 -165 0 -165 0 0 -165z"/>
<path d="M2170 1665 l0 -165 165 0 165 0 0 -335 0 -335 -335 0 -335 0 0 -165
0 -165 -330 0 -330 0 0 -165 0 -165 2665 0 2665 0 0 165 0 165 -335 0 -335 0
0 165 0 165 -330 0 -330 0 0 170 0 170 165 0 165 0 0 165 0 165 165 0 165 0 0
165 0 165 -165 0 -165 0 0 -165 0 -165 -1500 0 -1500 0 0 165 0 165 -165 0
-165 0 0 -165z m2660 -830 l0 -335 -665 0 -665 0 0 165 0 165 -335 0 -335 0 0
163 c0 90 3 167 7 170 3 4 453 7 1000 7 l993 0 0 -335z"/>
</g>
</svg>
