<svg xmlns="http://www.w3.org/2000/svg" viewBox="0 0 32 32" height="48" width="48"><title>business-product-check</title><g><rect x="28.955" y="15.245" width="1.52" height="1.52" fill="currentColor"></rect><rect x="27.425" y="16.765" width="1.53" height="1.52" fill="currentColor"></rect><rect x="27.425" y="13.715" width="1.53" height="1.53" fill="currentColor"></rect><rect x="25.905" y="18.285" width="1.52" height="1.53" fill="currentColor"></rect><rect x="25.905" y="12.195" width="1.52" height="1.52" fill="currentColor"></rect><polygon points="24.385 24.385 19.805 24.385 19.805 25.905 25.905 25.905 25.905 19.815 24.385 19.815 24.385 24.385" fill="currentColor"></polygon><polygon points="15.235 16.765 13.715 16.765 13.715 15.245 12.185 15.245 12.185 13.715 10.665 13.715 10.665 15.245 9.145 15.245 9.145 16.765 10.665 16.765 10.665 18.285 12.185 18.285 12.185 19.815 13.715 19.815 13.715 21.335 15.235 21.335 15.235 19.815 16.765 19.815 16.765 18.285 18.285 18.285 18.285 16.765 19.805 16.765 19.805 15.245 21.335 15.245 21.335 13.715 22.855 13.715 22.855 12.195 21.335 12.195 21.335 10.665 19.805 10.665 19.805 12.195 18.285 12.195 18.285 13.715 16.765 13.715 16.765 15.245 15.235 15.245 15.235 16.765" fill="currentColor"></polygon><polygon points="24.385 7.625 24.385 12.195 25.905 12.195 25.905 6.095 19.805 6.095 19.805 7.625 24.385 7.625" fill="currentColor"></polygon><rect x="18.285" y="25.905" width="1.52" height="1.53" fill="currentColor"></rect><rect x="18.285" y="4.575" width="1.52" height="1.52" fill="currentColor"></rect><rect x="16.765" y="27.435" width="1.52" height="1.52" fill="currentColor"></rect><rect x="16.765" y="3.055" width="1.52" height="1.52" fill="currentColor"></rect><rect x="15.235" y="28.955" width="1.53" height="1.52" fill="currentColor"></rect><rect x="15.235" y="1.525" width="1.53" height="1.53" fill="currentColor"></rect><rect x="13.715" y="27.435" width="1.52" height="1.52" fill="currentColor"></rect><rect x="13.715" y="3.055" width="1.52" height="1.52" fill="currentColor"></rect><rect x="12.185" y="25.905" width="1.53" height="1.53" fill="currentColor"></rect><rect x="12.185" y="4.575" width="1.53" height="1.52" fill="currentColor"></rect><polygon points="7.615 24.385 7.615 19.815 6.095 19.815 6.095 25.905 12.185 25.905 12.185 24.385 7.615 24.385" fill="currentColor"></polygon><polygon points="7.615 7.625 12.185 7.625 12.185 6.095 6.095 6.095 6.095 12.195 7.615 12.195 7.615 7.625" fill="currentColor"></polygon><rect x="4.575" y="18.285" width="1.52" height="1.53" fill="currentColor"></rect><rect x="4.575" y="12.195" width="1.52" height="1.52" fill="currentColor"></rect><rect x="3.045" y="16.765" width="1.53" height="1.52" fill="currentColor"></rect><rect x="3.045" y="13.715" width="1.53" height="1.53" fill="currentColor"></rect><rect x="1.525" y="15.245" width="1.52" height="1.52" fill="currentColor"></rect></g></svg>