<svg xmlns="http://www.w3.org/2000/svg" viewBox="0 0 32 32" height="48" width="48"><title>email-mail-open-address</title><g><polygon points="30.48 12.19 30.48 10.67 28.95 10.67 28.95 9.14 27.43 9.14 27.43 6.1 25.91 6.1 25.91 18.29 27.43 18.29 27.43 16.76 28.95 16.76 28.95 15.24 30.48 15.24 30.48 28.95 32 28.95 32 12.19 30.48 12.19" fill="currentColor"></polygon><rect x="28.95" y="28.95" width="1.53" height="1.53" fill="currentColor"></rect><rect x="3.05" y="30.48" width="25.9" height="1.52" fill="currentColor"></rect><rect x="24.38" y="18.29" width="1.53" height="1.52" fill="currentColor"></rect><rect x="22.86" y="25.91" width="1.52" height="1.52" fill="currentColor"></rect><rect x="22.86" y="19.81" width="1.52" height="1.52" fill="currentColor"></rect><rect x="21.33" y="24.38" width="1.53" height="1.53" fill="currentColor"></rect><rect x="21.33" y="21.33" width="1.53" height="1.53" fill="currentColor"></rect><rect x="21.33" y="10.67" width="1.53" height="4.57" fill="currentColor"></rect><rect x="19.81" y="9.14" width="1.52" height="1.53" fill="currentColor"></rect><rect x="10.67" y="22.86" width="10.66" height="1.52" fill="currentColor"></rect><rect x="18.29" y="15.24" width="3.04" height="1.52" fill="currentColor"></rect><polygon points="18.29 10.67 13.72 10.67 13.72 12.19 16.76 12.19 16.76 15.24 18.29 15.24 18.29 10.67" fill="currentColor"></polygon><rect x="13.72" y="15.24" width="3.04" height="1.52" fill="currentColor"></rect><rect x="12.19" y="7.62" width="7.62" height="1.52" fill="currentColor"></rect><rect x="12.19" y="18.29" width="7.62" height="1.52" fill="currentColor"></rect><rect x="12.19" y="12.19" width="1.53" height="3.05" fill="currentColor"></rect><rect x="10.67" y="16.76" width="1.52" height="1.53" fill="currentColor"></rect><rect x="10.67" y="9.14" width="1.52" height="1.53" fill="currentColor"></rect><rect x="9.14" y="24.38" width="1.53" height="1.53" fill="currentColor"></rect><rect x="9.14" y="21.33" width="1.53" height="1.53" fill="currentColor"></rect><rect x="9.14" y="10.67" width="1.53" height="6.09" fill="currentColor"></rect><rect x="7.62" y="25.91" width="1.52" height="1.52" fill="currentColor"></rect><rect x="7.62" y="19.81" width="1.52" height="1.52" fill="currentColor"></rect><polygon points="25.91 6.1 25.91 4.57 22.86 4.57 22.86 3.05 21.33 3.05 21.33 1.52 19.81 1.52 19.81 0 12.19 0 12.19 1.52 10.67 1.52 10.67 3.05 9.14 3.05 9.14 4.57 6.1 4.57 6.1 6.1 25.91 6.1" fill="currentColor"></polygon><rect x="6.1" y="18.29" width="1.52" height="1.52" fill="currentColor"></rect><rect x="1.52" y="28.95" width="1.53" height="1.53" fill="currentColor"></rect><polygon points="1.52 15.24 3.05 15.24 3.05 16.76 4.57 16.76 4.57 18.29 6.1 18.29 6.1 6.1 4.57 6.1 4.57 9.14 3.05 9.14 3.05 10.67 1.52 10.67 1.52 12.19 0 12.19 0 28.95 1.52 28.95 1.52 15.24" fill="currentColor"></polygon></g></svg>