<svg xmlns="http://www.w3.org/2000/svg" viewBox="0 0 32 32" height="48" width="48"><title>food-drink-desert-cake</title><g><polygon points="27.43 9.9 27.43 8.38 25.9 8.38 25.9 9.9 24.38 9.9 24.38 11.43 28.95 11.43 28.95 14.47 24.38 14.47 24.38 16 19.81 16 19.81 17.52 15.24 17.52 15.24 19.05 10.67 19.05 10.67 20.57 6.09 20.57 6.09 22.09 3.05 22.09 3.05 19.05 6.09 19.05 6.09 17.52 3.05 17.52 3.05 16 1.52 16 1.52 31.24 6.09 31.24 6.09 29.71 3.05 29.71 3.05 26.67 6.09 26.67 6.09 25.14 10.67 25.14 10.67 23.62 15.24 23.62 15.24 22.09 19.81 22.09 19.81 20.57 24.38 20.57 24.38 19.05 28.95 19.05 28.95 20.57 27.43 20.57 27.43 22.09 30.48 22.09 30.48 6.86 28.95 6.86 28.95 9.9 27.43 9.9" fill="currentColor"></polygon><rect x="25.9" y="5.33" width="3.05" height="1.53" fill="currentColor"></rect><rect x="24.38" y="22.09" width="3.05" height="1.53" fill="currentColor"></rect><rect x="22.86" y="6.86" width="3.04" height="1.52" fill="currentColor"></rect><rect x="22.86" y="3.81" width="3.04" height="1.52" fill="currentColor"></rect><rect x="19.81" y="23.62" width="4.57" height="1.52" fill="currentColor"></rect><rect x="19.81" y="11.43" width="4.57" height="1.52" fill="currentColor"></rect><rect x="19.81" y="5.33" width="3.05" height="1.53" fill="currentColor"></rect><rect x="19.81" y="2.28" width="3.05" height="1.53" fill="currentColor"></rect><rect x="16.76" y="3.81" width="3.05" height="1.52" fill="currentColor"></rect><rect x="16.76" y="0.76" width="3.05" height="1.52" fill="currentColor"></rect><rect x="15.24" y="25.14" width="4.57" height="1.53" fill="currentColor"></rect><rect x="15.24" y="12.95" width="4.57" height="1.52" fill="currentColor"></rect><rect x="15.24" y="2.28" width="1.52" height="1.53" fill="currentColor"></rect><rect x="10.67" y="26.67" width="4.57" height="1.52" fill="currentColor"></rect><rect x="10.67" y="14.47" width="4.57" height="1.53" fill="currentColor"></rect><path d="M10.67,3.81V5.33H9.14V9.9h1.53v1.53h4.57V9.9h1.52V5.33H15.24V3.81H13.71V2.28H12.19V3.81Zm3.04,1.52V6.86h1.53V8.38H13.71V6.86H12.19V5.33Z" fill="currentColor"></path><rect x="9.14" y="0.76" width="3.05" height="1.52" fill="currentColor"></rect><rect x="6.09" y="28.19" width="4.58" height="1.52" fill="currentColor"></rect><rect x="6.09" y="16" width="4.58" height="1.52" fill="currentColor"></rect><rect x="7.62" y="9.9" width="1.52" height="1.53" fill="currentColor"></rect><rect x="6.09" y="11.43" width="1.53" height="1.52" fill="currentColor"></rect><rect x="4.57" y="12.95" width="1.52" height="1.52" fill="currentColor"></rect><rect x="3.05" y="14.47" width="1.52" height="1.53" fill="currentColor"></rect></g></svg>