<?xml version="1.0" standalone="no"?>
<!DOCTYPE svg PUBLIC "-//W3C//DTD SVG 20010904//EN"
 "http://www.w3.org/TR/2001/REC-SVG-20010904/DTD/svg10.dtd">
<svg version="1.0" xmlns="http://www.w3.org/2000/svg"
 width="228.000000pt" height="221.000000pt" viewBox="0 0 228.000000 221.000000"
 preserveAspectRatio="xMidYMid meet">

<g transform="translate(0.000000,221.000000) scale(0.100000,-0.100000)"
fill="#000000" stroke="none">
<path d="M810 2098 l0 -38 -75 0 -75 0 0 -35 c0 -33 -2 -35 -35 -35 -34 0 -35
-1 -35 -40 0 -39 -1 -40 -35 -40 -33 0 -35 -2 -35 -35 0 -34 -1 -35 -40 -35
-39 0 -40 -1 -40 -35 0 -33 -2 -35 -35 -35 -34 0 -35 -1 -35 -40 0 -39 -1 -40
-35 -40 l-35 0 0 -70 0 -70 -40 0 -40 0 0 -75 0 -75 -35 0 -35 0 0 -330 0
-330 35 0 35 0 0 -75 0 -75 40 0 c39 0 40 -1 40 -35 0 -33 2 -35 35 -35 34 0
35 -1 35 -40 0 -39 1 -40 35 -40 33 0 35 -2 35 -35 0 -34 1 -35 40 -35 39 0
40 -1 40 -35 0 -33 2 -35 35 -35 34 0 35 -1 35 -40 0 -39 1 -40 35 -40 33 0
35 -2 35 -35 l0 -35 75 0 75 0 0 -37 0 -38 70 3 70 4 0 144 0 144 -145 0 -145
0 0 35 c0 33 -2 35 -35 35 -33 0 -35 2 -35 34 0 33 -2 35 -37 38 -36 3 -38 5
-41 41 -3 35 -5 37 -38 37 -32 0 -34 2 -34 35 l0 35 75 0 75 0 0 -35 c0 -33 2
-35 35 -35 33 0 35 -2 35 -34 0 -33 2 -35 38 -38 35 -3 37 -5 40 -40 l3 -38
70 0 69 0 0 40 c0 39 1 40 35 40 33 0 35 2 35 35 0 34 1 35 40 35 39 0 40 1
40 35 l0 34 -147 3 -148 3 -3 37 c-3 36 -5 38 -38 38 -32 0 -34 2 -34 35 0 33
-2 35 -35 35 -33 0 -35 2 -35 34 0 33 -2 35 -37 38 l-38 3 0 220 0 220 38 3
c35 3 37 5 37 38 0 32 2 34 35 34 33 0 35 2 35 35 0 33 -2 35 -35 35 l-35 0 0
115 0 115 110 0 110 0 0 -40 c0 -39 1 -40 35 -40 33 0 35 -2 35 -35 0 -33 2
-35 35 -35 33 0 35 2 35 35 l0 35 190 0 190 0 0 -35 c0 -33 2 -35 35 -35 33 0
35 2 35 35 0 33 2 35 35 35 34 0 35 1 35 40 l0 40 110 0 110 0 0 -115 0 -115
-35 0 c-33 0 -35 -2 -35 -35 0 -33 2 -35 35 -35 33 0 35 -2 35 -34 0 -33 2
-35 38 -38 l37 -3 0 -220 0 -220 -37 -3 c-36 -3 -38 -5 -38 -38 0 -32 -2 -34
-35 -34 -33 0 -35 -2 -35 -35 0 -33 -2 -35 -34 -35 -33 0 -35 -2 -38 -37 l-3
-38 -147 -3 -148 -3 0 -34 c0 -34 1 -35 40 -35 39 0 40 -1 40 -35 0 -33 2 -35
35 -35 l35 0 0 -222 0 -223 70 0 70 0 0 38 c0 37 0 37 40 37 39 0 40 1 40 35
0 33 2 35 35 35 34 0 35 1 35 40 0 39 1 40 35 40 33 0 35 2 35 35 0 34 1 35
40 35 39 0 40 1 40 35 0 33 2 35 35 35 34 0 35 1 35 40 0 39 1 40 35 40 33 0
35 2 35 35 0 34 1 35 40 35 l40 0 0 75 0 75 35 0 35 0 0 330 0 330 -35 0 -35
0 0 75 0 75 -40 0 -40 0 0 70 0 70 -35 0 c-34 0 -35 1 -35 40 0 39 -1 40 -35
40 -33 0 -35 2 -35 35 0 34 -1 35 -40 35 -39 0 -40 1 -40 35 0 33 -2 35 -35
35 -34 0 -35 1 -35 40 0 39 -1 40 -35 40 -33 0 -35 2 -35 35 l0 35 -75 0 -75
0 0 38 0 37 -330 0 -330 0 0 -37z"/>
</g>
</svg>
