<svg xmlns="http://www.w3.org/2000/svg" viewBox="0 0 32 32" height="48" width="48"><title>interface-essential-note-music</title><g><polygon points="28.185 6.86 25.135 6.86 25.135 8.38 28.185 8.38 28.185 20.57 25.135 20.57 25.135 22.1 23.615 22.1 23.615 25.14 25.135 25.14 25.135 26.67 28.185 26.67 28.185 25.14 29.715 25.14 29.715 0.76 25.135 0.76 25.135 2.29 28.185 2.29 28.185 6.86" fill="currentColor"></polygon><rect x="20.565" y="8.38" width="4.57" height="1.53" fill="currentColor"></rect><rect x="20.565" y="2.29" width="4.57" height="1.52" fill="currentColor"></rect><rect x="15.995" y="9.91" width="4.57" height="1.52" fill="currentColor"></rect><rect x="15.995" y="3.81" width="4.57" height="1.53" fill="currentColor"></rect><rect x="11.425" y="11.43" width="4.57" height="1.52" fill="currentColor"></rect><rect x="11.425" y="5.34" width="4.57" height="1.52" fill="currentColor"></rect><polygon points="3.805 31.24 6.855 31.24 6.855 29.72 8.375 29.72 8.375 14.48 11.425 14.48 11.425 12.95 8.375 12.95 8.375 8.38 11.425 8.38 11.425 6.86 6.855 6.86 6.855 25.14 3.805 25.14 3.805 26.67 2.285 26.67 2.285 29.72 3.805 29.72 3.805 31.24" fill="currentColor"></polygon></g></svg>