<svg xmlns="http://www.w3.org/2000/svg" viewBox="0 0 32 32" height="48" width="48"><title>interface-essential-protect-rubber-ring</title><g><polygon points="30.47 9.14 28.95 9.14 28.95 10.67 25.9 10.67 25.9 12.19 22.85 12.19 22.85 19.81 25.9 19.81 25.9 21.33 28.95 21.33 28.95 22.86 30.47 22.86 30.47 19.81 28.95 19.81 28.95 15.24 30.47 15.24 30.47 19.81 32 19.81 32 12.19 30.47 12.19 30.47 9.14" fill="currentColor"></polygon><rect x="27.43" y="22.86" width="1.52" height="3.04" fill="currentColor"></rect><rect x="27.43" y="6.1" width="1.52" height="3.04" fill="currentColor"></rect><rect x="25.9" y="25.9" width="1.53" height="1.53" fill="currentColor"></rect><rect x="25.9" y="4.57" width="1.53" height="1.53" fill="currentColor"></rect><rect x="22.85" y="27.43" width="3.05" height="1.52" fill="currentColor"></rect><rect x="22.85" y="3.05" width="3.05" height="1.52" fill="currentColor"></rect><rect x="21.33" y="19.81" width="1.52" height="1.52" fill="currentColor"></rect><rect x="21.33" y="10.67" width="1.52" height="1.52" fill="currentColor"></rect><polygon points="21.33 25.9 19.81 25.9 19.81 22.86 12.19 22.86 12.19 25.9 10.66 25.9 10.66 28.95 9.14 28.95 9.14 30.48 12.19 30.48 12.19 32 19.81 32 19.81 30.48 22.85 30.48 22.85 28.95 21.33 28.95 21.33 25.9" fill="currentColor"></polygon><rect x="19.81" y="21.33" width="1.52" height="1.53" fill="currentColor"></rect><rect x="19.81" y="9.14" width="1.52" height="1.53" fill="currentColor"></rect><rect x="10.66" y="21.33" width="1.53" height="1.53" fill="currentColor"></rect><rect x="10.66" y="9.14" width="1.53" height="1.53" fill="currentColor"></rect><polygon points="10.66 6.1 12.19 6.1 12.19 9.14 19.81 9.14 19.81 6.1 21.33 6.1 21.33 3.05 22.85 3.05 22.85 1.52 19.81 1.52 19.81 0 12.19 0 12.19 1.52 9.14 1.52 9.14 3.05 10.66 3.05 10.66 6.1" fill="currentColor"></polygon><rect x="9.14" y="19.81" width="1.52" height="1.52" fill="currentColor"></rect><rect x="9.14" y="10.67" width="1.52" height="1.52" fill="currentColor"></rect><rect x="6.09" y="27.43" width="3.05" height="1.52" fill="currentColor"></rect><rect x="6.09" y="3.05" width="3.05" height="1.52" fill="currentColor"></rect><rect x="4.57" y="25.9" width="1.52" height="1.53" fill="currentColor"></rect><rect x="4.57" y="4.57" width="1.52" height="1.53" fill="currentColor"></rect><rect x="3.05" y="22.86" width="1.52" height="3.04" fill="currentColor"></rect><polygon points="6.09 21.33 6.09 19.81 9.14 19.81 9.14 12.19 6.09 12.19 6.09 10.67 3.05 10.67 3.05 9.14 1.52 9.14 1.52 12.19 0 12.19 0 19.81 1.52 19.81 1.52 22.86 3.05 22.86 3.05 21.33 6.09 21.33" fill="currentColor"></polygon><rect x="3.05" y="6.1" width="1.52" height="3.04" fill="currentColor"></rect></g></svg>