<svg xmlns="http://www.w3.org/2000/svg" viewBox="0 0 32 32" height="48" width="48"><title>interface-essential-file-error</title><g><path d="M3.05,32h25.9V7.62H27.43V6.1H25.91V4.57H24.38V3.05H22.86V1.52H21.33V0H3.05ZM4.57,1.52H19.81V9.14h7.62V30.48H4.57Z" fill="currentColor"></path><polygon points="7.62 19.81 7.62 21.33 18.29 21.33 18.29 24.38 19.81 24.38 19.81 21.33 22.86 21.33 22.86 24.38 24.38 24.38 24.38 19.81 7.62 19.81" fill="currentColor"></polygon><polygon points="22.86 12.19 21.33 12.19 21.33 13.71 19.81 13.71 19.81 15.24 21.33 15.24 21.33 16.76 22.86 16.76 22.86 15.24 24.38 15.24 24.38 13.71 22.86 13.71 22.86 12.19" fill="currentColor"></polygon><rect x="19.81" y="24.38" width="3.05" height="1.52" fill="currentColor"></rect><polygon points="9.14 16.76 10.67 16.76 10.67 15.24 12.19 15.24 12.19 13.71 10.67 13.71 10.67 12.19 9.14 12.19 9.14 13.71 7.62 13.71 7.62 15.24 9.14 15.24 9.14 16.76" fill="currentColor"></polygon></g></svg>