<svg xmlns="http://www.w3.org/2000/svg" viewBox="0 0 32 32" height="48" width="48"><title>interface-essential-share-2</title><g><polygon points="30.48 4.57 28.95 4.57 28.95 6.1 27.43 6.1 27.43 4.57 25.91 4.57 25.91 3.05 27.43 3.05 27.43 1.52 25.91 1.52 25.91 0 24.38 0 24.38 6.1 19.81 6.1 19.81 7.62 24.38 7.62 24.38 13.71 25.91 13.71 25.91 12.19 27.43 12.19 27.43 10.67 28.95 10.67 28.95 9.14 30.48 9.14 30.48 7.62 32 7.62 32 6.1 30.48 6.1 30.48 4.57" fill="currentColor"></polygon><rect x="27.43" y="16.76" width="1.52" height="12.19" fill="currentColor"></rect><rect x="27.43" y="3.05" width="1.52" height="1.52" fill="currentColor"></rect><rect x="25.91" y="28.95" width="1.52" height="1.53" fill="currentColor"></rect><rect x="3.05" y="30.48" width="22.86" height="1.52" fill="currentColor"></rect><rect x="16.76" y="7.62" width="3.05" height="1.52" fill="currentColor"></rect><rect x="15.24" y="9.14" width="1.52" height="1.53" fill="currentColor"></rect><rect x="13.71" y="10.67" width="1.53" height="7.62" fill="currentColor"></rect><rect x="3.05" y="3.05" width="15.24" height="1.52" fill="currentColor"></rect><rect x="1.52" y="28.95" width="1.53" height="1.53" fill="currentColor"></rect><rect x="1.52" y="4.57" width="1.53" height="1.53" fill="currentColor"></rect><rect y="6.1" width="1.52" height="22.85" fill="currentColor"></rect></g></svg>