<svg xmlns="http://www.w3.org/2000/svg" viewBox="0 0 32 32"><title>logo-linkedin</title><g><rect x="30.47" y="3.05" width="1.53" height="25.9" fill="currentColor"></rect><rect x="28.95" y="28.95" width="1.52" height="1.53" fill="currentColor"></rect><rect x="28.95" y="1.52" width="1.52" height="1.53" fill="currentColor"></rect><rect x="27.42" y="4.57" width="1.53" height="22.86" fill="currentColor"></rect><rect x="3.04" y="30.48" width="25.91" height="1.52" fill="currentColor"></rect><rect x="4.57" y="27.43" width="22.85" height="1.52" fill="currentColor"></rect><polygon points="22.85 15.24 21.33 15.24 21.33 13.71 18.28 13.71 18.28 15.24 16.76 15.24 16.76 13.71 13.71 13.71 13.71 22.86 16.76 22.86 16.76 18.29 18.28 18.29 18.28 16.76 19.81 16.76 19.81 18.29 21.33 18.29 21.33 22.86 24.38 22.86 24.38 16.76 22.85 16.76 22.85 15.24" fill="currentColor"></polygon><rect x="7.61" y="13.71" width="3.05" height="9.15" fill="currentColor"></rect><rect x="7.61" y="9.14" width="3.05" height="3.05" fill="currentColor"></rect><rect x="4.57" y="3.05" width="22.85" height="1.52" fill="currentColor"></rect><rect x="3.04" width="25.91" height="1.52" fill="currentColor"></rect><rect x="3.04" y="4.57" width="1.53" height="22.86" fill="currentColor"></rect><rect x="1.52" y="28.95" width="1.52" height="1.53" fill="currentColor"></rect><rect x="1.52" y="1.52" width="1.52" height="1.53" fill="currentColor"></rect><rect y="3.05" width="1.52" height="25.9" fill="currentColor"></rect></g></svg>