<svg xmlns="http://www.w3.org/2000/svg" viewBox="0 0 32 32" height="48" width="48"><title>pet-animals-cat</title><g><polygon points="30.48 12.955 28.95 12.955 28.95 17.525 25.91 17.525 25.91 19.055 28.95 19.055 28.95 20.575 25.91 20.575 25.91 22.095 28.95 22.095 28.95 23.625 30.48 23.625 30.48 22.095 32 22.095 32 20.575 30.48 20.575 30.48 19.055 32 19.055 32 17.525 30.48 17.525 30.48 12.955" fill="currentColor"></polygon><rect x="27.43" y="23.625" width="1.52" height="1.52" fill="currentColor"></rect><rect x="27.43" y="9.905" width="1.52" height="3.05" fill="currentColor"></rect><rect x="25.91" y="25.145" width="1.52" height="1.53" fill="currentColor"></rect><rect x="25.91" y="6.865" width="1.52" height="3.04" fill="currentColor"></rect><rect x="24.38" y="3.815" width="1.53" height="3.05" fill="currentColor"></rect><rect x="22.86" y="26.675" width="3.05" height="1.52" fill="currentColor"></rect><rect x="22.86" y="22.095" width="1.52" height="1.53" fill="currentColor"></rect><rect x="22.86" y="19.055" width="1.52" height="1.52" fill="currentColor"></rect><rect x="22.86" y="2.285" width="1.52" height="1.53" fill="currentColor"></rect><rect x="21.34" y="3.815" width="1.52" height="1.52" fill="currentColor"></rect><rect x="9.15" y="28.195" width="13.71" height="1.52" fill="currentColor"></rect><rect x="19.81" y="8.385" width="1.53" height="3.05" fill="currentColor"></rect><rect x="19.81" y="5.335" width="1.53" height="1.53" fill="currentColor"></rect><rect x="18.29" y="14.475" width="1.52" height="1.53" fill="currentColor"></rect><rect x="16.76" y="22.095" width="1.53" height="1.53" fill="currentColor"></rect><polygon points="12.19 17.525 12.19 19.055 13.72 19.055 13.72 20.575 16.76 20.575 16.76 19.055 18.29 19.055 18.29 17.525 12.19 17.525" fill="currentColor"></polygon><rect x="13.72" y="23.625" width="3.04" height="1.52" fill="currentColor"></rect><polygon points="15.24 8.385 15.24 11.435 16.76 11.435 16.76 8.385 19.81 8.385 19.81 6.865 12.19 6.865 12.19 8.385 15.24 8.385" fill="currentColor"></polygon><rect x="10.67" y="14.475" width="1.52" height="1.53" fill="currentColor"></rect><rect x="10.67" y="8.385" width="1.52" height="3.05" fill="currentColor"></rect><rect x="10.67" y="5.335" width="1.52" height="1.53" fill="currentColor"></rect><rect x="9.15" y="3.815" width="1.52" height="1.52" fill="currentColor"></rect><rect x="6.1" y="26.675" width="3.05" height="1.52" fill="currentColor"></rect><rect x="7.62" y="22.095" width="1.53" height="1.53" fill="currentColor"></rect><rect x="7.62" y="19.055" width="1.53" height="1.52" fill="currentColor"></rect><rect x="7.62" y="2.285" width="1.53" height="1.53" fill="currentColor"></rect><rect x="6.1" y="3.815" width="1.52" height="3.05" fill="currentColor"></rect><rect x="4.57" y="25.145" width="1.53" height="1.53" fill="currentColor"></rect><rect x="4.57" y="6.865" width="1.53" height="3.04" fill="currentColor"></rect><rect x="3.05" y="23.625" width="1.52" height="1.52" fill="currentColor"></rect><polygon points="6.1 22.095 6.1 20.575 3.05 20.575 3.05 19.055 6.1 19.055 6.1 17.525 3.05 17.525 3.05 12.955 1.53 12.955 1.53 17.525 0 17.525 0 19.055 1.53 19.055 1.53 20.575 0 20.575 0 22.095 1.53 22.095 1.53 23.625 3.05 23.625 3.05 22.095 6.1 22.095" fill="currentColor"></polygon><rect x="3.05" y="9.905" width="1.52" height="3.05" fill="currentColor"></rect></g></svg>