<svg xmlns="http://www.w3.org/2000/svg" viewBox="0 0 32 32" height="48" width="48"><title>social-rewards-certified-diploma</title><g><polygon points="30.48 23.62 28.95 23.62 28.95 25.14 32 25.14 32 19.05 30.48 19.05 30.48 23.62" fill="currentColor"></polygon><rect x="30.48" y="14.47" width="1.52" height="1.53" fill="currentColor"></rect><polygon points="0 0.76 0 25.14 15.24 25.14 15.24 23.62 1.52 23.62 1.52 2.28 30.48 2.28 30.48 11.43 32 11.43 32 0.76 0 0.76" fill="currentColor"></polygon><rect x="28.95" y="16" width="1.53" height="1.52" fill="currentColor"></rect><rect x="28.95" y="12.95" width="1.53" height="1.52" fill="currentColor"></rect><polygon points="27.43 20.57 24.38 20.57 24.38 22.09 22.86 22.09 22.86 23.62 21.33 23.62 21.33 22.09 19.81 22.09 19.81 20.57 16.76 20.57 16.76 17.52 15.24 17.52 15.24 22.09 16.76 22.09 16.76 31.24 19.81 31.24 19.81 29.71 21.33 29.71 21.33 28.19 22.86 28.19 22.86 29.71 24.38 29.71 24.38 31.24 27.43 31.24 27.43 22.09 28.95 22.09 28.95 17.52 27.43 17.52 27.43 20.57" fill="currentColor"></polygon><polygon points="28.95 6.86 28.95 3.81 24.38 3.81 24.38 5.33 27.43 5.33 27.43 6.86 28.95 6.86" fill="currentColor"></polygon><rect x="25.9" y="12.95" width="1.53" height="4.57" fill="currentColor"></rect><rect x="24.38" y="17.52" width="1.52" height="1.53" fill="currentColor"></rect><rect x="24.38" y="11.43" width="1.52" height="1.52" fill="currentColor"></rect><polygon points="27.43 9.9 27.43 12.95 28.95 12.95 28.95 8.38 24.38 8.38 24.38 9.9 27.43 9.9" fill="currentColor"></polygon><rect x="19.81" y="19.05" width="4.57" height="1.52" fill="currentColor"></rect><rect x="22.86" y="6.86" width="1.52" height="1.52" fill="currentColor"></rect><rect x="21.33" y="5.33" width="1.53" height="1.53" fill="currentColor"></rect><rect x="19.81" y="9.9" width="4.57" height="1.53" fill="currentColor"></rect><rect x="19.81" y="6.86" width="1.52" height="1.52" fill="currentColor"></rect><rect x="18.29" y="17.52" width="1.52" height="1.53" fill="currentColor"></rect><rect x="18.29" y="11.43" width="1.52" height="1.52" fill="currentColor"></rect><rect x="16.76" y="12.95" width="1.53" height="4.57" fill="currentColor"></rect><polygon points="16.76 9.9 19.81 9.9 19.81 8.38 15.24 8.38 15.24 12.95 16.76 12.95 16.76 9.9" fill="currentColor"></polygon><rect x="13.71" y="16" width="1.53" height="1.52" fill="currentColor"></rect><rect x="13.71" y="12.95" width="1.53" height="1.52" fill="currentColor"></rect><rect x="12.19" y="14.47" width="1.52" height="1.53" fill="currentColor"></rect><polygon points="19.81 5.33 19.81 3.81 3.05 3.81 3.05 22.09 13.71 22.09 13.71 20.57 4.57 20.57 4.57 5.33 19.81 5.33" fill="currentColor"></polygon><rect x="6.1" y="12.95" width="4.57" height="1.52" fill="currentColor"></rect><rect x="6.1" y="6.86" width="4.57" height="4.57" fill="currentColor"></rect><rect x="6.1" y="16" width="4.57" height="1.52" fill="currentColor"></rect></g></svg>