<svg xmlns="http://www.w3.org/2000/svg" viewBox="0 0 32 32" height="48" width="48"><title>social-rewards-rating-star-2</title><g><path d="M30.48,10.66H21.33v1.53H19.81v1.52H18.29v1.52H16.76V4.57h1.53V1.52H16.76V0H15.24V1.52H13.71V4.57H12.19V7.62H10.67v3.04H1.52v1.53H0v1.52H1.52v1.52H3.05v1.53H6.1v1.52H7.62v3.05H9.14V19.81h3.05V18.28h3.05v1.53H13.71v1.52H12.19v1.52H10.67v1.53H9.14V25.9H7.62v1.53H6.1v1.52H4.57V27.43H3.05v3.04H4.57V32H7.62V30.47H9.14V28.95h3.05V27.43h1.52V25.9h1.53V24.38h1.52V19.81h1.53v1.52h1.52v1.52h1.52v1.53h1.53V25.9h1.52v1.53H25.9v3.04H24.38V32h3.05V30.47h1.52V27.43H27.43V24.38H25.9V21.33H24.38V18.28H25.9V16.76H22.86v1.52h-6.1V16.76h4.57V15.23h1.53V13.71h6.09v1.52h1.53V13.71H32V12.19H30.48Zm-16.77,6.1H10.67V15.23H7.62V13.71H4.57V12.19h7.62v1.52h1.52Z" fill="currentColor"></path><rect x="25.9" y="15.23" width="3.05" height="1.53" fill="currentColor"></rect><rect x="22.86" y="28.95" width="1.52" height="1.52" fill="currentColor"></rect><rect x="19.81" y="27.43" width="3.05" height="1.52" fill="currentColor"></rect><rect x="19.81" y="7.62" width="1.52" height="3.04" fill="currentColor"></rect><rect x="18.29" y="25.9" width="1.52" height="1.53" fill="currentColor"></rect><rect x="18.29" y="4.57" width="1.52" height="3.05" fill="currentColor"></rect><rect x="16.76" y="24.38" width="1.53" height="1.52" fill="currentColor"></rect><rect x="6.1" y="21.33" width="1.52" height="3.05" fill="currentColor"></rect><rect x="4.57" y="24.38" width="1.53" height="3.05" fill="currentColor"></rect></g></svg>