<svg xmlns="http://www.w3.org/2000/svg" viewBox="0 0 32 32" height="48" width="48"><title>social-rewards-certified-ribbon</title><g><rect x="25.91" y="1.52" width="1.52" height="28.95" fill="currentColor"></rect><rect x="22.86" y="30.47" width="3.05" height="1.53" fill="currentColor"></rect><rect x="21.34" y="28.95" width="1.52" height="1.52" fill="currentColor"></rect><polygon points="22.86 7.62 21.34 7.62 21.34 9.14 19.81 9.14 19.81 10.66 18.29 10.66 18.29 12.19 16.76 12.19 16.76 13.71 15.24 13.71 15.24 15.23 13.72 15.23 13.72 13.71 12.19 13.71 12.19 12.19 10.67 12.19 10.67 13.71 9.15 13.71 9.15 15.23 10.67 15.23 10.67 16.76 12.19 16.76 12.19 18.28 13.72 18.28 13.72 19.81 15.24 19.81 15.24 18.28 16.76 18.28 16.76 16.76 18.29 16.76 18.29 15.23 19.81 15.23 19.81 13.71 21.34 13.71 21.34 12.19 22.86 12.19 22.86 10.66 24.38 10.66 24.38 9.14 22.86 9.14 22.86 7.62" fill="currentColor"></polygon><rect x="19.81" y="27.43" width="1.53" height="1.52" fill="currentColor"></rect><rect x="18.29" y="25.9" width="1.52" height="1.53" fill="currentColor"></rect><rect x="16.76" y="24.38" width="1.53" height="1.52" fill="currentColor"></rect><rect x="15.24" y="22.85" width="1.52" height="1.53" fill="currentColor"></rect><rect x="13.72" y="24.38" width="1.52" height="1.52" fill="currentColor"></rect><rect x="12.19" y="25.9" width="1.53" height="1.53" fill="currentColor"></rect><rect x="10.67" y="27.43" width="1.52" height="1.52" fill="currentColor"></rect><rect x="9.15" y="28.95" width="1.52" height="1.52" fill="currentColor"></rect><rect x="6.1" width="19.81" height="1.52" fill="currentColor"></rect><rect x="6.1" y="30.47" width="3.05" height="1.53" fill="currentColor"></rect><rect x="4.57" y="1.52" width="1.53" height="28.95" fill="currentColor"></rect></g></svg>