<svg width="0" height="0" class="hidden">
  <symbol xmlns="http://www.w3.org/2000/svg" viewBox="0 0 32 32" id="menu-icon">
    <title>interface-essential-navigation-menu-3</title>
    <g>
      <rect x="29.71" y="3.81" width="1.53" height="24.38" fill="currentColor"></rect>
      <rect x="28.19" y="28.19" width="1.52" height="1.52" fill="currentColor"></rect>
      <rect x="28.19" y="2.28" width="1.52" height="1.53" fill="currentColor"></rect>
      <rect x="3.81" y="29.71" width="24.38" height="1.53" fill="currentColor"></rect>
      <polygon points="25.14 20.57 6.86 20.57 6.86 22.09 5.33 22.09 5.33 25.14 6.86 25.14 6.86 23.62 25.14 23.62 25.14 25.14 26.67 25.14 26.67 22.09 25.14 22.09 25.14 20.57" fill="currentColor"></polygon>
      <polygon points="25.14 12.95 6.86 12.95 6.86 14.47 5.33 14.47 5.33 17.52 6.86 17.52 6.86 16 25.14 16 25.14 17.52 26.67 17.52 26.67 14.47 25.14 14.47 25.14 12.95" fill="currentColor"></polygon>
      <polygon points="25.14 5.33 6.86 5.33 6.86 6.85 5.33 6.85 5.33 9.9 6.86 9.9 6.86 8.38 25.14 8.38 25.14 9.9 26.67 9.9 26.67 6.85 25.14 6.85 25.14 5.33" fill="currentColor"></polygon>
      <rect x="6.86" y="25.14" width="18.28" height="1.52" fill="currentColor"></rect>
      <rect x="6.86" y="17.52" width="18.28" height="1.52" fill="currentColor"></rect>
      <rect x="6.86" y="9.9" width="18.28" height="1.53" fill="currentColor"></rect>
      <rect x="3.81" y="0.76" width="24.38" height="1.52" fill="currentColor"></rect>
      <rect x="2.29" y="28.19" width="1.52" height="1.52" fill="currentColor"></rect>
      <rect x="2.29" y="2.28" width="1.52" height="1.53" fill="currentColor"></rect>
      <rect x="0.76" y="3.81" width="1.53" height="24.38" fill="currentColor"></rect>
    </g>
  </symbol>
  <symbol xmlns="http://www.w3.org/2000/svg" viewBox="0 0 32 32" id="pet-animals-cat">
    <title>pet-animals-cat</title>
    <g>
      <polygon points="30.48 12.955 28.95 12.955 28.95 17.525 25.91 17.525 25.91 19.055 28.95 19.055 28.95 20.575 25.91 20.575 25.91 22.095 28.95 22.095 28.95 23.625 30.48 23.625 30.48 22.095 32 22.095 32 20.575 30.48 20.575 30.48 19.055 32 19.055 32 17.525 30.48 17.525 30.48 12.955" fill="currentColor"></polygon>
      <rect x="27.43" y="23.625" width="1.52" height="1.52" fill="currentColor"></rect>
      <rect x="27.43" y="9.905" width="1.52" height="3.05" fill="currentColor"></rect>
      <rect x="25.91" y="25.145" width="1.52" height="1.53" fill="currentColor"></rect>
      <rect x="25.91" y="6.865" width="1.52" height="3.04" fill="currentColor"></rect>
      <rect x="24.38" y="3.815" width="1.53" height="3.05" fill="currentColor"></rect>
      <rect x="22.86" y="26.675" width="3.05" height="1.52" fill="currentColor"></rect>
      <rect x="22.86" y="22.095" width="1.52" height="1.53" fill="currentColor"></rect>
      <rect x="22.86" y="19.055" width="1.52" height="1.52" fill="currentColor"></rect>
      <rect x="22.86" y="2.285" width="1.52" height="1.53" fill="currentColor"></rect>
      <rect x="21.34" y="3.815" width="1.52" height="1.52" fill="currentColor"></rect>
      <rect x="9.15" y="28.195" width="13.71" height="1.52" fill="currentColor"></rect>
      <rect x="19.81" y="8.385" width="1.53" height="3.05" fill="currentColor"></rect>
      <rect x="19.81" y="5.335" width="1.53" height="1.53" fill="currentColor"></rect>
      <rect x="18.29" y="14.475" width="1.52" height="1.53" fill="currentColor"></rect>
      <rect x="16.76" y="22.095" width="1.53" height="1.53" fill="currentColor"></rect>
      <polygon points="12.19 17.525 12.19 19.055 13.72 19.055 13.72 20.575 16.76 20.575 16.76 19.055 18.29 19.055 18.29 17.525 12.19 17.525" fill="currentColor"></polygon>
      <rect x="13.72" y="23.625" width="3.04" height="1.52" fill="currentColor"></rect>
      <polygon points="15.24 8.385 15.24 11.435 16.76 11.435 16.76 8.385 19.81 8.385 19.81 6.865 12.19 6.865 12.19 8.385 15.24 8.385" fill="currentColor"></polygon>
      <rect x="10.67" y="14.475" width="1.52" height="1.53" fill="currentColor"></rect>
      <rect x="10.67" y="8.385" width="1.52" height="3.05" fill="currentColor"></rect>
      <rect x="10.67" y="5.335" width="1.52" height="1.53" fill="currentColor"></rect>
      <rect x="9.15" y="3.815" width="1.52" height="1.52" fill="currentColor"></rect>
      <rect x="6.1" y="26.675" width="3.05" height="1.52" fill="currentColor"></rect>
      <rect x="7.62" y="22.095" width="1.53" height="1.53" fill="currentColor"></rect>
      <rect x="7.62" y="19.055" width="1.53" height="1.52" fill="currentColor"></rect>
      <rect x="7.62" y="2.285" width="1.53" height="1.53" fill="currentColor"></rect>
      <rect x="6.1" y="3.815" width="1.52" height="3.05" fill="currentColor"></rect>
      <rect x="4.57" y="25.145" width="1.53" height="1.53" fill="currentColor"></rect>
      <rect x="4.57" y="6.865" width="1.53" height="3.04" fill="currentColor"></rect>
      <rect x="3.05" y="23.625" width="1.52" height="1.52" fill="currentColor"></rect>
      <polygon points="6.1 22.095 6.1 20.575 3.05 20.575 3.05 19.055 6.1 19.055 6.1 17.525 3.05 17.525 3.05 12.955 1.53 12.955 1.53 17.525 0 17.525 0 19.055 1.53 19.055 1.53 20.575 0 20.575 0 22.095 1.53 22.095 1.53 23.625 3.05 23.625 3.05 22.095 6.1 22.095" fill="currentColor"></polygon>
      <rect x="3.05" y="9.905" width="1.52" height="3.05" fill="currentColor"></rect>
    </g>
  </symbol>
  <symbol xmlns="http://www.w3.org/2000/svg" viewBox="0 0 32 32" id="search-coding-icon">
    <title>search-coding</title>
    <g>
      <path d="M29.72,23.625H28.19V22.1H26.67v-1.52H25.14v-3.05H23.62v3.05H22.1V22.1H20.57v1.53H17.53v1.52h3.04v1.52H22.1V28.2h1.52v1.52h1.52v1.52h4.58v-1.52h1.52v-4.57H29.72Zm0,4.57H28.19v-1.53H26.67v-1.52H25.14v-1.52h1.53v1.52h1.52v1.52h1.53Z" fill="currentColor"></path>
      <rect x="25.14" y="9.905" width="1.53" height="7.62" fill="currentColor"></rect>
      <rect x="23.62" y="6.855" width="1.52" height="3.05" fill="currentColor"></rect>
      <rect x="22.1" y="5.335" width="1.52" height="1.52" fill="currentColor"></rect>
      <rect x="20.57" y="12.955" width="1.53" height="1.52" fill="currentColor"></rect>
      <rect x="20.57" y="3.815" width="1.53" height="1.52" fill="currentColor"></rect>
      <rect x="19.05" y="14.475" width="1.52" height="1.53" fill="currentColor"></rect>
      <rect x="19.05" y="11.425" width="1.52" height="1.53" fill="currentColor"></rect>
      <rect x="17.53" y="16.005" width="1.52" height="1.52" fill="currentColor"></rect>
      <rect x="17.53" y="9.905" width="1.52" height="1.52" fill="currentColor"></rect>
      <rect x="17.53" y="2.285" width="3.04" height="1.53" fill="currentColor"></rect>
      <rect x="9.91" y="25.145" width="7.62" height="1.52" fill="currentColor"></rect>
      <rect x="14.48" y="9.905" width="1.52" height="3.05" fill="currentColor"></rect>
      <rect x="12.95" y="12.955" width="1.53" height="1.52" fill="currentColor"></rect>
      <rect x="11.43" y="14.475" width="1.52" height="3.05" fill="currentColor"></rect>
      <rect x="9.91" y="0.765" width="7.62" height="1.52" fill="currentColor"></rect>
      <rect x="6.86" y="23.625" width="3.05" height="1.52" fill="currentColor"></rect>
      <rect x="8.38" y="16.005" width="1.53" height="1.52" fill="currentColor"></rect>
      <rect x="8.38" y="9.905" width="1.53" height="1.52" fill="currentColor"></rect>
      <rect x="6.86" y="2.285" width="3.05" height="1.53" fill="currentColor"></rect>
      <rect x="6.86" y="14.475" width="1.52" height="1.53" fill="currentColor"></rect>
      <rect x="6.86" y="11.425" width="1.52" height="1.53" fill="currentColor"></rect>
      <rect x="5.34" y="22.095" width="1.52" height="1.53" fill="currentColor"></rect>
      <rect x="5.34" y="12.955" width="1.52" height="1.52" fill="currentColor"></rect>
      <rect x="5.34" y="3.815" width="1.52" height="1.52" fill="currentColor"></rect>
      <rect x="3.81" y="20.575" width="1.53" height="1.52" fill="currentColor"></rect>
      <rect x="3.81" y="5.335" width="1.53" height="1.52" fill="currentColor"></rect>
      <rect x="2.29" y="17.525" width="1.52" height="3.05" fill="currentColor"></rect>
      <rect x="2.29" y="6.855" width="1.52" height="3.05" fill="currentColor"></rect>
      <rect x="0.76" y="9.905" width="1.53" height="7.62" fill="currentColor"></rect>
    </g>
  </symbol>
  <symbol xmlns="http://www.w3.org/2000/svg" viewBox="0 0 32 32" id="social-rewards-certified-ribbon">
    <title>social-rewards-certified-ribbon</title>
    <g>
      <rect x="25.91" y="1.52" width="1.52" height="28.95" fill="currentColor"></rect>
      <rect x="22.86" y="30.47" width="3.05" height="1.53" fill="currentColor"></rect>
      <rect x="21.34" y="28.95" width="1.52" height="1.52" fill="currentColor"></rect>
      <polygon points="22.86 7.62 21.34 7.62 21.34 9.14 19.81 9.14 19.81 10.66 18.29 10.66 18.29 12.19 16.76 12.19 16.76 13.71 15.24 13.71 15.24 15.23 13.72 15.23 13.72 13.71 12.19 13.71 12.19 12.19 10.67 12.19 10.67 13.71 9.15 13.71 9.15 15.23 10.67 15.23 10.67 16.76 12.19 16.76 12.19 18.28 13.72 18.28 13.72 19.81 15.24 19.81 15.24 18.28 16.76 18.28 16.76 16.76 18.29 16.76 18.29 15.23 19.81 15.23 19.81 13.71 21.34 13.71 21.34 12.19 22.86 12.19 22.86 10.66 24.38 10.66 24.38 9.14 22.86 9.14 22.86 7.62" fill="currentColor"></polygon>
      <rect x="19.81" y="27.43" width="1.53" height="1.52" fill="currentColor"></rect>
      <rect x="18.29" y="25.9" width="1.52" height="1.53" fill="currentColor"></rect>
      <rect x="16.76" y="24.38" width="1.53" height="1.52" fill="currentColor"></rect>
      <rect x="15.24" y="22.85" width="1.52" height="1.53" fill="currentColor"></rect>
      <rect x="13.72" y="24.38" width="1.52" height="1.52" fill="currentColor"></rect>
      <rect x="12.19" y="25.9" width="1.53" height="1.53" fill="currentColor"></rect>
      <rect x="10.67" y="27.43" width="1.52" height="1.52" fill="currentColor"></rect>
      <rect x="9.15" y="28.95" width="1.52" height="1.52" fill="currentColor"></rect>
      <rect x="6.1" width="19.81" height="1.52" fill="currentColor"></rect>
      <rect x="6.1" y="30.47" width="3.05" height="1.53" fill="currentColor"></rect>
      <rect x="4.57" y="1.52" width="1.53" height="28.95" fill="currentColor"></rect>
    </g>
  </symbol>
  <symbol xmlns="http://www.w3.org/2000/svg" viewBox="0 0 32 32" id="social-rewards-rating-star-2">
    <title>social-rewards-rating-star-2</title>
    <g>
      <path d="M30.48,10.66H21.33v1.53H19.81v1.52H18.29v1.52H16.76V4.57h1.53V1.52H16.76V0H15.24V1.52H13.71V4.57H12.19V7.62H10.67v3.04H1.52v1.53H0v1.52H1.52v1.52H3.05v1.53H6.1v1.52H7.62v3.05H9.14V19.81h3.05V18.28h3.05v1.53H13.71v1.52H12.19v1.52H10.67v1.53H9.14V25.9H7.62v1.53H6.1v1.52H4.57V27.43H3.05v3.04H4.57V32H7.62V30.47H9.14V28.95h3.05V27.43h1.52V25.9h1.53V24.38h1.52V19.81h1.53v1.52h1.52v1.52h1.52v1.53h1.53V25.9h1.52v1.53H25.9v3.04H24.38V32h3.05V30.47h1.52V27.43H27.43V24.38H25.9V21.33H24.38V18.28H25.9V16.76H22.86v1.52h-6.1V16.76h4.57V15.23h1.53V13.71h6.09v1.52h1.53V13.71H32V12.19H30.48Zm-16.77,6.1H10.67V15.23H7.62V13.71H4.57V12.19h7.62v1.52h1.52Z" fill="currentColor"></path>
      <rect x="25.9" y="15.23" width="3.05" height="1.53" fill="currentColor"></rect>
      <rect x="22.86" y="28.95" width="1.52" height="1.52" fill="currentColor"></rect>
      <rect x="19.81" y="27.43" width="3.05" height="1.52" fill="currentColor"></rect>
      <rect x="19.81" y="7.62" width="1.52" height="3.04" fill="currentColor"></rect>
      <rect x="18.29" y="25.9" width="1.52" height="1.53" fill="currentColor"></rect>
      <rect x="18.29" y="4.57" width="1.52" height="3.05" fill="currentColor"></rect>
      <rect x="16.76" y="24.38" width="1.53" height="1.52" fill="currentColor"></rect>
      <rect x="6.1" y="21.33" width="1.52" height="3.05" fill="currentColor"></rect>
      <rect x="4.57" y="24.38" width="1.53" height="3.05" fill="currentColor"></rect>
    </g>
  </symbol>
  <symbol xmlns="http://www.w3.org/2000/svg" viewBox="0 0 32 32" id="transportation-bicycle">
    <title>transportation-bicycle</title>
    <g>
      <rect x="30.47" y="16.76" width="1.53" height="7.62" fill="currentColor"></rect>
      <rect x="28.95" y="24.38" width="1.52" height="1.52" fill="currentColor"></rect>
      <rect x="28.95" y="15.24" width="1.52" height="1.52" fill="currentColor"></rect>
      <rect x="21.33" y="25.9" width="7.62" height="1.53" fill="currentColor"></rect>
      <rect x="24.38" y="19.81" width="1.52" height="1.52" fill="currentColor"></rect>
      <rect x="19.81" y="24.38" width="1.52" height="1.52" fill="currentColor"></rect>
      <rect x="19.81" y="15.24" width="1.52" height="1.52" fill="currentColor"></rect>
      <rect x="16.76" y="4.57" width="4.57" height="1.52" fill="currentColor"></rect>
      <polygon points="19.81 16.76 18.28 16.76 18.28 19.81 13.71 19.81 13.71 16.76 12.19 16.76 12.19 19.81 6.09 19.81 6.09 18.28 4.57 18.28 4.57 21.33 12.19 21.33 12.19 24.38 13.71 24.38 13.71 21.33 18.28 21.33 18.28 24.38 19.81 24.38 19.81 16.76" fill="currentColor"></polygon>
      <rect x="10.66" y="24.38" width="1.53" height="1.52" fill="currentColor"></rect>
      <rect x="10.66" y="15.24" width="1.53" height="1.52" fill="currentColor"></rect>
      <rect x="3.05" y="25.9" width="7.61" height="1.53" fill="currentColor"></rect>
      <rect x="6.09" y="16.76" width="1.53" height="1.52" fill="currentColor"></rect>
      <polygon points="7.62 15.24 7.62 16.76 9.14 16.76 9.14 15.24 10.66 15.24 10.66 13.71 21.33 13.71 21.33 15.24 22.86 15.24 22.86 19.81 24.38 19.81 24.38 15.24 28.95 15.24 28.95 13.71 24.38 13.71 24.38 6.09 21.33 6.09 21.33 7.62 22.86 7.62 22.86 12.19 10.66 12.19 10.66 10.66 13.71 10.66 13.71 9.14 12.19 9.14 12.19 7.62 9.14 7.62 9.14 6.09 6.09 6.09 6.09 10.66 9.14 10.66 9.14 13.71 3.05 13.71 3.05 15.24 7.62 15.24" fill="currentColor"></polygon>
      <rect x="1.52" y="24.38" width="1.53" height="1.52" fill="currentColor"></rect>
      <rect x="1.52" y="15.24" width="1.53" height="1.52" fill="currentColor"></rect>
      <rect y="16.76" width="1.52" height="7.62" fill="currentColor"></rect>
    </g>
  </symbol>
  <symbol xmlns="http://www.w3.org/2000/svg" viewBox="0 0 32 32" id="travel-wayfinding-beach-umbrella">
    <title>travel-wayfinding-beach-umbrella</title>
    <g>
      <polygon points="30.48 30.48 7.62 30.48 7.62 28.95 6.1 28.95 6.1 30.48 3.05 30.48 3.05 28.95 1.53 28.95 1.53 30.48 0 30.48 0 32 32 32 32 24.38 30.48 24.38 30.48 30.48" fill="currentColor"></polygon>
      <rect x="25.91" y="25.9" width="3.04" height="3.05" fill="currentColor"></rect>
      <rect x="24.38" y="22.86" width="6.1" height="1.52" fill="currentColor"></rect>
      <rect x="25.91" y="4.57" width="1.52" height="3.05" fill="currentColor"></rect>
      <rect x="22.86" y="27.43" width="1.52" height="1.52" fill="currentColor"></rect>
      <rect x="22.86" y="24.38" width="1.52" height="1.52" fill="currentColor"></rect>
      <rect x="22.86" y="7.62" width="3.05" height="1.52" fill="currentColor"></rect>
      <rect x="22.86" y="3.05" width="3.05" height="1.52" fill="currentColor"></rect>
      <rect x="21.34" y="22.86" width="1.52" height="1.52" fill="currentColor"></rect>
      <rect x="19.81" y="27.43" width="1.53" height="1.52" fill="currentColor"></rect>
      <polygon points="19.81 7.62 18.29 7.62 18.29 10.67 16.76 10.67 16.76 12.19 19.81 12.19 19.81 10.67 22.86 10.67 22.86 9.14 19.81 9.14 19.81 7.62" fill="currentColor"></polygon>
      <rect x="19.81" y="1.52" width="3.05" height="1.53" fill="currentColor"></rect>
      <rect x="18.29" y="24.38" width="1.52" height="1.52" fill="currentColor"></rect>
      <rect x="16.76" y="4.57" width="1.53" height="3.05" fill="currentColor"></rect>
      <rect x="13.72" y="25.9" width="3.04" height="3.05" fill="currentColor"></rect>
      <polygon points="21.34 22.86 21.34 21.33 18.29 21.33 18.29 19.81 16.76 19.81 16.76 21.33 13.72 21.33 13.72 22.86 21.34 22.86" fill="currentColor"></polygon>
      <rect x="15.24" y="16.76" width="1.52" height="3.05" fill="currentColor"></rect>
      <rect x="13.72" y="3.05" width="3.04" height="1.52" fill="currentColor"></rect>
      <polygon points="16.76 13.71 16.76 12.19 13.72 12.19 13.72 13.71 10.67 13.71 10.67 15.24 13.72 15.24 13.72 16.76 15.24 16.76 15.24 13.71 16.76 13.71" fill="currentColor"></polygon>
      <rect x="10.67" y="22.86" width="3.05" height="1.52" fill="currentColor"></rect>
      <rect x="10.67" y="27.43" width="1.52" height="1.52" fill="currentColor"></rect>
      <rect x="9.14" y="24.38" width="1.53" height="1.52" fill="currentColor"></rect>
      <polygon points="9.14 12.19 7.62 12.19 7.62 16.76 10.67 16.76 10.67 15.24 9.14 15.24 9.14 12.19" fill="currentColor"></polygon>
      <rect x="4.57" y="25.9" width="4.57" height="1.53" fill="currentColor"></rect>
      <rect x="6.1" y="7.62" width="1.52" height="4.57" fill="currentColor"></rect>
      <polygon points="7.62 7.62 9.14 7.62 9.14 3.05 13.72 3.05 13.72 1.52 19.81 1.52 19.81 0 10.67 0 10.67 1.52 7.62 1.52 7.62 3.05 4.57 3.05 4.57 4.57 7.62 4.57 7.62 7.62" fill="currentColor"></polygon>
      <rect x="4.57" y="16.76" width="3.05" height="1.52" fill="currentColor"></rect>
      <rect x="3.05" y="27.43" width="1.52" height="1.52" fill="currentColor"></rect>
      <rect x="3.05" y="4.57" width="1.52" height="3.05" fill="currentColor"></rect>
      <rect x="1.53" y="18.28" width="3.04" height="1.53" fill="currentColor"></rect>
      <rect x="1.53" y="7.62" width="1.52" height="4.57" fill="currentColor"></rect>
      <rect y="12.19" width="1.53" height="6.09" fill="currentColor"></rect>
    </g>
  </symbol>
  <symbol xmlns="http://www.w3.org/2000/svg" viewBox="0 0 32 32" id="video-movies-set-equipment">
    <title>video-movies-set-equipment</title>
    <g>
      <path d="M25.14,0V1.52h3.05V3.05h1.52V4.57H26.67V3.05H25.14V1.52H19.05V3.05h3.04V4.57h1.53V6.09H20.57V4.57H19.05V3.05h-6.1V4.57H16V6.09h1.52V7.62H14.48V6.09H12.95V4.57H6.86V6.09H9.9V7.62h1.53V9.14H8.38V7.62H6.86V6.09H.76V30.47H2.29V19.81H29.71V30.47h1.53V13.71H2.29V12.19H6.86V10.66h6.09V9.14h6.1V7.62h6.09V6.09h6.1V0Zm0,16.76h1.53V15.24h3.04v1.52H28.19v1.52H25.14Zm-7.62,0h1.53V15.24h3.04v1.52H20.57v1.52H17.52Zm-7.62,0h1.53V15.24h3.05v1.52H12.95v1.52H9.9Zm-6.09,0V15.24H6.86v1.52H5.33v1.52H2.29V16.76Zm1.52-6.1H2.29V7.62H3.81V9.14H5.33Z" fill="currentColor"></path>
      <rect x="2.29" y="30.47" width="27.42" height="1.53" fill="currentColor"></rect>
      <polygon points="26.67 22.86 25.14 22.86 25.14 24.38 23.62 24.38 23.62 22.86 22.09 22.86 22.09 24.38 20.57 24.38 20.57 25.9 22.09 25.9 22.09 27.43 23.62 27.43 23.62 28.95 25.14 28.95 25.14 27.43 26.67 27.43 26.67 25.9 28.19 25.9 28.19 24.38 26.67 24.38 26.67 22.86" fill="currentColor"></polygon>
      <rect x="6.86" y="25.9" width="10.66" height="1.53" fill="currentColor"></rect>
      <rect x="6.86" y="22.86" width="10.66" height="1.52" fill="currentColor"></rect>
    </g>
  </symbol>
  <symbol xmlns="http://www.w3.org/2000/svg" viewBox="0 0 32 32" id="business-product-check">
    <title>business-product-check</title>
    <g>
      <rect x="28.955" y="15.245" width="1.52" height="1.52" fill="currentColor"></rect>
      <rect x="27.425" y="16.765" width="1.53" height="1.52" fill="currentColor"></rect>
      <rect x="27.425" y="13.715" width="1.53" height="1.53" fill="currentColor"></rect>
      <rect x="25.905" y="18.285" width="1.52" height="1.53" fill="currentColor"></rect>
      <rect x="25.905" y="12.195" width="1.52" height="1.52" fill="currentColor"></rect>
      <polygon points="24.385 24.385 19.805 24.385 19.805 25.905 25.905 25.905 25.905 19.815 24.385 19.815 24.385 24.385" fill="currentColor"></polygon>
      <polygon points="15.235 16.765 13.715 16.765 13.715 15.245 12.185 15.245 12.185 13.715 10.665 13.715 10.665 15.245 9.145 15.245 9.145 16.765 10.665 16.765 10.665 18.285 12.185 18.285 12.185 19.815 13.715 19.815 13.715 21.335 15.235 21.335 15.235 19.815 16.765 19.815 16.765 18.285 18.285 18.285 18.285 16.765 19.805 16.765 19.805 15.245 21.335 15.245 21.335 13.715 22.855 13.715 22.855 12.195 21.335 12.195 21.335 10.665 19.805 10.665 19.805 12.195 18.285 12.195 18.285 13.715 16.765 13.715 16.765 15.245 15.235 15.245 15.235 16.765" fill="currentColor"></polygon>
      <polygon points="24.385 7.625 24.385 12.195 25.905 12.195 25.905 6.095 19.805 6.095 19.805 7.625 24.385 7.625" fill="currentColor"></polygon>
      <rect x="18.285" y="25.905" width="1.52" height="1.53" fill="currentColor"></rect>
      <rect x="18.285" y="4.575" width="1.52" height="1.52" fill="currentColor"></rect>
      <rect x="16.765" y="27.435" width="1.52" height="1.52" fill="currentColor"></rect>
      <rect x="16.765" y="3.055" width="1.52" height="1.52" fill="currentColor"></rect>
      <rect x="15.235" y="28.955" width="1.53" height="1.52" fill="currentColor"></rect>
      <rect x="15.235" y="1.525" width="1.53" height="1.53" fill="currentColor"></rect>
      <rect x="13.715" y="27.435" width="1.52" height="1.52" fill="currentColor"></rect>
      <rect x="13.715" y="3.055" width="1.52" height="1.52" fill="currentColor"></rect>
      <rect x="12.185" y="25.905" width="1.53" height="1.53" fill="currentColor"></rect>
      <rect x="12.185" y="4.575" width="1.53" height="1.52" fill="currentColor"></rect>
      <polygon points="7.615 24.385 7.615 19.815 6.095 19.815 6.095 25.905 12.185 25.905 12.185 24.385 7.615 24.385" fill="currentColor"></polygon>
      <polygon points="7.615 7.625 12.185 7.625 12.185 6.095 6.095 6.095 6.095 12.195 7.615 12.195 7.615 7.625" fill="currentColor"></polygon>
      <rect x="4.575" y="18.285" width="1.52" height="1.53" fill="currentColor"></rect>
      <rect x="4.575" y="12.195" width="1.52" height="1.52" fill="currentColor"></rect>
      <rect x="3.045" y="16.765" width="1.53" height="1.52" fill="currentColor"></rect>
      <rect x="3.045" y="13.715" width="1.53" height="1.53" fill="currentColor"></rect>
      <rect x="1.525" y="15.245" width="1.52" height="1.52" fill="currentColor"></rect>
    </g>
  </symbol>
  <symbol xmlns="http://www.w3.org/2000/svg" viewBox="0 0 32 32" id="diploma-icon">
    <title>social-rewards-certified-diploma</title>
    <g>
      <polygon points="30.48 23.62 28.95 23.62 28.95 25.14 32 25.14 32 19.05 30.48 19.05 30.48 23.62" fill="currentColor"></polygon>
      <rect x="30.48" y="14.47" width="1.52" height="1.53" fill="currentColor"></rect>
      <polygon points="0 0.76 0 25.14 15.24 25.14 15.24 23.62 1.52 23.62 1.52 2.28 30.48 2.28 30.48 11.43 32 11.43 32 0.76 0 0.76" fill="currentColor"></polygon>
      <rect x="28.95" y="16" width="1.53" height="1.52" fill="currentColor"></rect>
      <rect x="28.95" y="12.95" width="1.53" height="1.52" fill="currentColor"></rect>
      <polygon points="27.43 20.57 24.38 20.57 24.38 22.09 22.86 22.09 22.86 23.62 21.33 23.62 21.33 22.09 19.81 22.09 19.81 20.57 16.76 20.57 16.76 17.52 15.24 17.52 15.24 22.09 16.76 22.09 16.76 31.24 19.81 31.24 19.81 29.71 21.33 29.71 21.33 28.19 22.86 28.19 22.86 29.71 24.38 29.71 24.38 31.24 27.43 31.24 27.43 22.09 28.95 22.09 28.95 17.52 27.43 17.52 27.43 20.57" fill="currentColor"></polygon>
      <polygon points="28.95 6.86 28.95 3.81 24.38 3.81 24.38 5.33 27.43 5.33 27.43 6.86 28.95 6.86" fill="currentColor"></polygon>
      <rect x="25.9" y="12.95" width="1.53" height="4.57" fill="currentColor"></rect>
      <rect x="24.38" y="17.52" width="1.52" height="1.53" fill="currentColor"></rect>
      <rect x="24.38" y="11.43" width="1.52" height="1.52" fill="currentColor"></rect>
      <polygon points="27.43 9.9 27.43 12.95 28.95 12.95 28.95 8.38 24.38 8.38 24.38 9.9 27.43 9.9" fill="currentColor"></polygon>
      <rect x="19.81" y="19.05" width="4.57" height="1.52" fill="currentColor"></rect>
      <rect x="22.86" y="6.86" width="1.52" height="1.52" fill="currentColor"></rect>
      <rect x="21.33" y="5.33" width="1.53" height="1.53" fill="currentColor"></rect>
      <rect x="19.81" y="9.9" width="4.57" height="1.53" fill="currentColor"></rect>
      <rect x="19.81" y="6.86" width="1.52" height="1.52" fill="currentColor"></rect>
      <rect x="18.29" y="17.52" width="1.52" height="1.53" fill="currentColor"></rect>
      <rect x="18.29" y="11.43" width="1.52" height="1.52" fill="currentColor"></rect>
      <rect x="16.76" y="12.95" width="1.53" height="4.57" fill="currentColor"></rect>
      <polygon points="16.76 9.9 19.81 9.9 19.81 8.38 15.24 8.38 15.24 12.95 16.76 12.95 16.76 9.9" fill="currentColor"></polygon>
      <rect x="13.71" y="16" width="1.53" height="1.52" fill="currentColor"></rect>
      <rect x="13.71" y="12.95" width="1.53" height="1.52" fill="currentColor"></rect>
      <rect x="12.19" y="14.47" width="1.52" height="1.53" fill="currentColor"></rect>
      <polygon points="19.81 5.33 19.81 3.81 3.05 3.81 3.05 22.09 13.71 22.09 13.71 20.57 4.57 20.57 4.57 5.33 19.81 5.33" fill="currentColor"></polygon>
      <rect x="6.1" y="12.95" width="4.57" height="1.52" fill="currentColor"></rect>
      <rect x="6.1" y="6.86" width="4.57" height="4.57" fill="currentColor"></rect>
      <rect x="6.1" y="16" width="4.57" height="1.52" fill="currentColor"></rect>
    </g>
  </symbol>
  <symbol xmlns="http://www.w3.org/2000/svg" viewBox="0 0 32 32" id="email-icon">
    <title>email-mail-open-address</title>
    <g>
      <polygon points="30.48 12.19 30.48 10.67 28.95 10.67 28.95 9.14 27.43 9.14 27.43 6.1 25.91 6.1 25.91 18.29 27.43 18.29 27.43 16.76 28.95 16.76 28.95 15.24 30.48 15.24 30.48 28.95 32 28.95 32 12.19 30.48 12.19" fill="currentColor"></polygon>
      <rect x="28.95" y="28.95" width="1.53" height="1.53" fill="currentColor"></rect>
      <rect x="3.05" y="30.48" width="25.9" height="1.52" fill="currentColor"></rect>
      <rect x="24.38" y="18.29" width="1.53" height="1.52" fill="currentColor"></rect>
      <rect x="22.86" y="25.91" width="1.52" height="1.52" fill="currentColor"></rect>
      <rect x="22.86" y="19.81" width="1.52" height="1.52" fill="currentColor"></rect>
      <rect x="21.33" y="24.38" width="1.53" height="1.53" fill="currentColor"></rect>
      <rect x="21.33" y="21.33" width="1.53" height="1.53" fill="currentColor"></rect>
      <rect x="21.33" y="10.67" width="1.53" height="4.57" fill="currentColor"></rect>
      <rect x="19.81" y="9.14" width="1.52" height="1.53" fill="currentColor"></rect>
      <rect x="10.67" y="22.86" width="10.66" height="1.52" fill="currentColor"></rect>
      <rect x="18.29" y="15.24" width="3.04" height="1.52" fill="currentColor"></rect>
      <polygon points="18.29 10.67 13.72 10.67 13.72 12.19 16.76 12.19 16.76 15.24 18.29 15.24 18.29 10.67" fill="currentColor"></polygon>
      <rect x="13.72" y="15.24" width="3.04" height="1.52" fill="currentColor"></rect>
      <rect x="12.19" y="7.62" width="7.62" height="1.52" fill="currentColor"></rect>
      <rect x="12.19" y="18.29" width="7.62" height="1.52" fill="currentColor"></rect>
      <rect x="12.19" y="12.19" width="1.53" height="3.05" fill="currentColor"></rect>
      <rect x="10.67" y="16.76" width="1.52" height="1.53" fill="currentColor"></rect>
      <rect x="10.67" y="9.14" width="1.52" height="1.53" fill="currentColor"></rect>
      <rect x="9.14" y="24.38" width="1.53" height="1.53" fill="currentColor"></rect>
      <rect x="9.14" y="21.33" width="1.53" height="1.53" fill="currentColor"></rect>
      <rect x="9.14" y="10.67" width="1.53" height="6.09" fill="currentColor"></rect>
      <rect x="7.62" y="25.91" width="1.52" height="1.52" fill="currentColor"></rect>
      <rect x="7.62" y="19.81" width="1.52" height="1.52" fill="currentColor"></rect>
      <polygon points="25.91 6.1 25.91 4.57 22.86 4.57 22.86 3.05 21.33 3.05 21.33 1.52 19.81 1.52 19.81 0 12.19 0 12.19 1.52 10.67 1.52 10.67 3.05 9.14 3.05 9.14 4.57 6.1 4.57 6.1 6.1 25.91 6.1" fill="currentColor"></polygon>
      <rect x="6.1" y="18.29" width="1.52" height="1.52" fill="currentColor"></rect>
      <rect x="1.52" y="28.95" width="1.53" height="1.53" fill="currentColor"></rect>
      <polygon points="1.52 15.24 3.05 15.24 3.05 16.76 4.57 16.76 4.57 18.29 6.1 18.29 6.1 6.1 4.57 6.1 4.57 9.14 3.05 9.14 3.05 10.67 1.52 10.67 1.52 12.19 0 12.19 0 28.95 1.52 28.95 1.52 15.24" fill="currentColor"></polygon>
    </g>
  </symbol>
  <symbol xmlns="http://www.w3.org/2000/svg" viewBox="0 0 32 32" id="entertainment-events-hobbies-game-machines-arcade-2">
    <title>entertainment-events-hobbies-game-machines-arcade-2</title>
    <g>
      <path d="M30.47,4.57H28.95V3.05H27.42V1.52H25.9V0H3.04V6.1H4.57V7.62H6.09V6.1H24.38V7.62H25.9V22.86H24.38v1.52H22.85V25.9H3.04V24.38H1.52V25.9H0V32H1.52V27.43H21.33V32H32V6.1H30.47Zm-24.38,0H4.57V1.52H6.09Zm3.05,0H7.61V1.52H9.14Zm13.71,0H10.66V1.52H22.85Zm7.62,10.67H28.95V7.62H27.42V6.1H25.9V4.57H24.38V3.05H25.9V4.57h1.52V6.1h1.53V7.62h1.52Z" fill="currentColor"></path>
      <rect x="19.8" y="15.24" width="1.53" height="1.52" fill="currentColor"></rect>
      <rect x="16.76" y="22.86" width="4.57" height="1.52" fill="currentColor"></rect>
      <rect x="18.28" y="12.19" width="1.52" height="1.52" fill="currentColor"></rect>
      <polygon points="19.8 32 19.8 28.95 15.23 28.95 15.23 32 16.76 32 16.76 30.48 18.28 30.48 18.28 32 19.8 32" fill="currentColor"></polygon>
      <rect x="13.71" y="16.76" width="6.09" height="1.53" fill="currentColor"></rect>
      <rect x="13.71" y="12.19" width="1.52" height="1.52" fill="currentColor"></rect>
      <rect x="12.19" y="15.24" width="1.52" height="1.52" fill="currentColor"></rect>
      <rect x="10.66" y="22.86" width="1.53" height="1.52" fill="currentColor"></rect>
      <path d="M24.38,21.33V9.14H9.14V21.33ZM10.66,10.67H22.85v9.14H10.66Z" fill="currentColor"></path>
      <rect x="7.61" y="22.86" width="1.53" height="1.52" fill="currentColor"></rect>
      <rect x="6.09" y="7.62" width="1.52" height="13.71" fill="currentColor"></rect>
      <rect x="4.57" y="21.33" width="1.52" height="1.53" fill="currentColor"></rect>
      <rect x="3.04" y="22.86" width="1.53" height="1.52" fill="currentColor"></rect>
    </g>
  </symbol>
  <symbol xmlns="http://www.w3.org/2000/svg" viewBox="0 0 32 32" id="food-drink-coffee">
    <title>food-drink-coffee</title>
    <g>
      <rect x="29.71" y="15.24" width="1.53" height="4.57" fill="currentColor"></rect>
      <rect x="28.19" y="19.81" width="1.52" height="1.52" fill="currentColor"></rect>
      <rect x="28.19" y="13.72" width="1.52" height="1.52" fill="currentColor"></rect>
      <rect x="26.67" y="25.91" width="1.52" height="1.52" fill="currentColor"></rect>
      <rect x="26.67" y="16.76" width="1.52" height="1.53" fill="currentColor"></rect>
      <rect x="23.62" y="12.19" width="4.57" height="1.53" fill="currentColor"></rect>
      <rect x="25.14" y="27.43" width="1.53" height="1.52" fill="currentColor"></rect>
      <rect x="25.14" y="24.38" width="1.53" height="1.53" fill="currentColor"></rect>
      <polygon points="23.62 21.33 23.62 22.86 22.09 22.86 22.09 24.38 25.14 24.38 25.14 22.86 28.19 22.86 28.19 21.33 23.62 21.33" fill="currentColor"></polygon>
      <polygon points="23.62 15.24 23.62 19.81 26.67 19.81 26.67 18.29 25.14 18.29 25.14 16.76 26.67 16.76 26.67 15.24 23.62 15.24" fill="currentColor"></polygon>
      <rect x="22.09" y="28.95" width="3.05" height="1.53" fill="currentColor"></rect>
      <rect x="22.09" y="10.67" width="1.53" height="1.52" fill="currentColor"></rect>
      <rect x="19.05" y="24.38" width="3.04" height="1.53" fill="currentColor"></rect>
      <rect x="17.52" y="9.14" width="4.57" height="1.53" fill="currentColor"></rect>
      <rect x="6.86" y="30.48" width="15.23" height="1.52" fill="currentColor"></rect>
      <polygon points="8.38 12.19 8.38 13.72 6.86 13.72 6.86 15.24 8.38 15.24 8.38 16.76 20.57 16.76 20.57 15.24 22.09 15.24 22.09 13.72 20.57 13.72 20.57 12.19 8.38 12.19" fill="currentColor"></polygon>
      <rect x="19.05" y="1.52" width="1.52" height="3.05" fill="currentColor"></rect>
      <rect x="16" width="3.05" height="1.52" fill="currentColor"></rect>
      <rect x="17.52" y="4.57" width="1.53" height="1.53" fill="currentColor"></rect>
      <rect x="14.47" y="1.52" width="1.53" height="1.53" fill="currentColor"></rect>
      <rect x="14.47" y="7.62" width="1.53" height="3.05" fill="currentColor"></rect>
      <rect x="11.43" width="3.04" height="1.52" fill="currentColor"></rect>
      <rect x="12.95" y="6.1" width="1.52" height="1.52" fill="currentColor"></rect>
      <rect x="11.43" y="4.57" width="1.52" height="1.53" fill="currentColor"></rect>
      <rect x="9.9" y="25.91" width="9.15" height="1.52" fill="currentColor"></rect>
      <rect x="9.9" y="1.52" width="1.53" height="3.05" fill="currentColor"></rect>
      <rect x="6.86" y="9.14" width="6.09" height="1.53" fill="currentColor"></rect>
      <rect x="6.86" y="24.38" width="3.04" height="1.53" fill="currentColor"></rect>
      <rect x="3.81" y="28.95" width="3.05" height="1.53" fill="currentColor"></rect>
      <polygon points="6.86 21.33 5.33 21.33 5.33 22.86 3.81 22.86 3.81 24.38 6.86 24.38 6.86 21.33" fill="currentColor"></polygon>
      <rect x="5.33" y="10.67" width="1.53" height="1.52" fill="currentColor"></rect>
      <rect x="3.81" y="12.19" width="1.52" height="9.14" fill="currentColor"></rect>
      <rect x="2.28" y="27.43" width="1.53" height="1.52" fill="currentColor"></rect>
      <rect x="2.28" y="24.38" width="1.53" height="1.53" fill="currentColor"></rect>
      <rect x="0.76" y="25.91" width="1.52" height="1.52" fill="currentColor"></rect>
    </g>
  </symbol>
  <symbol xmlns="http://www.w3.org/2000/svg" viewBox="0 0 32 32" id="food-drink-desert-cake">
    <title>food-drink-desert-cake</title>
    <g>
      <polygon points="27.43 9.9 27.43 8.38 25.9 8.38 25.9 9.9 24.38 9.9 24.38 11.43 28.95 11.43 28.95 14.47 24.38 14.47 24.38 16 19.81 16 19.81 17.52 15.24 17.52 15.24 19.05 10.67 19.05 10.67 20.57 6.09 20.57 6.09 22.09 3.05 22.09 3.05 19.05 6.09 19.05 6.09 17.52 3.05 17.52 3.05 16 1.52 16 1.52 31.24 6.09 31.24 6.09 29.71 3.05 29.71 3.05 26.67 6.09 26.67 6.09 25.14 10.67 25.14 10.67 23.62 15.24 23.62 15.24 22.09 19.81 22.09 19.81 20.57 24.38 20.57 24.38 19.05 28.95 19.05 28.95 20.57 27.43 20.57 27.43 22.09 30.48 22.09 30.48 6.86 28.95 6.86 28.95 9.9 27.43 9.9" fill="currentColor"></polygon>
      <rect x="25.9" y="5.33" width="3.05" height="1.53" fill="currentColor"></rect>
      <rect x="24.38" y="22.09" width="3.05" height="1.53" fill="currentColor"></rect>
      <rect x="22.86" y="6.86" width="3.04" height="1.52" fill="currentColor"></rect>
      <rect x="22.86" y="3.81" width="3.04" height="1.52" fill="currentColor"></rect>
      <rect x="19.81" y="23.62" width="4.57" height="1.52" fill="currentColor"></rect>
      <rect x="19.81" y="11.43" width="4.57" height="1.52" fill="currentColor"></rect>
      <rect x="19.81" y="5.33" width="3.05" height="1.53" fill="currentColor"></rect>
      <rect x="19.81" y="2.28" width="3.05" height="1.53" fill="currentColor"></rect>
      <rect x="16.76" y="3.81" width="3.05" height="1.52" fill="currentColor"></rect>
      <rect x="16.76" y="0.76" width="3.05" height="1.52" fill="currentColor"></rect>
      <rect x="15.24" y="25.14" width="4.57" height="1.53" fill="currentColor"></rect>
      <rect x="15.24" y="12.95" width="4.57" height="1.52" fill="currentColor"></rect>
      <rect x="15.24" y="2.28" width="1.52" height="1.53" fill="currentColor"></rect>
      <rect x="10.67" y="26.67" width="4.57" height="1.52" fill="currentColor"></rect>
      <rect x="10.67" y="14.47" width="4.57" height="1.53" fill="currentColor"></rect>
      <path d="M10.67,3.81V5.33H9.14V9.9h1.53v1.53h4.57V9.9h1.52V5.33H15.24V3.81H13.71V2.28H12.19V3.81Zm3.04,1.52V6.86h1.53V8.38H13.71V6.86H12.19V5.33Z" fill="currentColor"></path>
      <rect x="9.14" y="0.76" width="3.05" height="1.52" fill="currentColor"></rect>
      <rect x="6.09" y="28.19" width="4.58" height="1.52" fill="currentColor"></rect>
      <rect x="6.09" y="16" width="4.58" height="1.52" fill="currentColor"></rect>
      <rect x="7.62" y="9.9" width="1.52" height="1.53" fill="currentColor"></rect>
      <rect x="6.09" y="11.43" width="1.53" height="1.52" fill="currentColor"></rect>
      <rect x="4.57" y="12.95" width="1.52" height="1.52" fill="currentColor"></rect>
      <rect x="3.05" y="14.47" width="1.52" height="1.53" fill="currentColor"></rect>
    </g>
  </symbol>
  <symbol version="1.0" xmlns="http://www.w3.org/2000/svg" preserveAspectRatio="xMidYMid meet" viewBox="0 0 228.000000 221.000000" id="github-icon">
    <g transform="translate(0.000000,221.000000) scale(0.100000,-0.100000)" fill="currentColor" stroke="none">
      <path d="M810 2098 l0 -38 -75 0 -75 0 0 -35 c0 -33 -2 -35 -35 -35 -34 0 -35
-1 -35 -40 0 -39 -1 -40 -35 -40 -33 0 -35 -2 -35 -35 0 -34 -1 -35 -40 -35
-39 0 -40 -1 -40 -35 0 -33 -2 -35 -35 -35 -34 0 -35 -1 -35 -40 0 -39 -1 -40
-35 -40 l-35 0 0 -70 0 -70 -40 0 -40 0 0 -75 0 -75 -35 0 -35 0 0 -330 0
-330 35 0 35 0 0 -75 0 -75 40 0 c39 0 40 -1 40 -35 0 -33 2 -35 35 -35 34 0
35 -1 35 -40 0 -39 1 -40 35 -40 33 0 35 -2 35 -35 0 -34 1 -35 40 -35 39 0
40 -1 40 -35 0 -33 2 -35 35 -35 34 0 35 -1 35 -40 0 -39 1 -40 35 -40 33 0
35 -2 35 -35 l0 -35 75 0 75 0 0 -37 0 -38 70 3 70 4 0 144 0 144 -145 0 -145
0 0 35 c0 33 -2 35 -35 35 -33 0 -35 2 -35 34 0 33 -2 35 -37 38 -36 3 -38 5
-41 41 -3 35 -5 37 -38 37 -32 0 -34 2 -34 35 l0 35 75 0 75 0 0 -35 c0 -33 2
-35 35 -35 33 0 35 -2 35 -34 0 -33 2 -35 38 -38 35 -3 37 -5 40 -40 l3 -38
70 0 69 0 0 40 c0 39 1 40 35 40 33 0 35 2 35 35 0 34 1 35 40 35 39 0 40 1
40 35 l0 34 -147 3 -148 3 -3 37 c-3 36 -5 38 -38 38 -32 0 -34 2 -34 35 0 33
-2 35 -35 35 -33 0 -35 2 -35 34 0 33 -2 35 -37 38 l-38 3 0 220 0 220 38 3
c35 3 37 5 37 38 0 32 2 34 35 34 33 0 35 2 35 35 0 33 -2 35 -35 35 l-35 0 0
115 0 115 110 0 110 0 0 -40 c0 -39 1 -40 35 -40 33 0 35 -2 35 -35 0 -33 2
-35 35 -35 33 0 35 2 35 35 l0 35 190 0 190 0 0 -35 c0 -33 2 -35 35 -35 33 0
35 2 35 35 0 33 2 35 35 35 34 0 35 1 35 40 l0 40 110 0 110 0 0 -115 0 -115
-35 0 c-33 0 -35 -2 -35 -35 0 -33 2 -35 35 -35 33 0 35 -2 35 -34 0 -33 2
-35 38 -38 l37 -3 0 -220 0 -220 -37 -3 c-36 -3 -38 -5 -38 -38 0 -32 -2 -34
-35 -34 -33 0 -35 -2 -35 -35 0 -33 -2 -35 -34 -35 -33 0 -35 -2 -38 -37 l-3
-38 -147 -3 -148 -3 0 -34 c0 -34 1 -35 40 -35 39 0 40 -1 40 -35 0 -33 2 -35
35 -35 l35 0 0 -222 0 -223 70 0 70 0 0 38 c0 37 0 37 40 37 39 0 40 1 40 35
0 33 2 35 35 35 34 0 35 1 35 40 0 39 1 40 35 40 33 0 35 2 35 35 0 34 1 35
40 35 39 0 40 1 40 35 0 33 2 35 35 35 34 0 35 1 35 40 0 39 1 40 35 40 33 0
35 2 35 35 0 34 1 35 40 35 l40 0 0 75 0 75 35 0 35 0 0 330 0 330 -35 0 -35
0 0 75 0 75 -40 0 -40 0 0 70 0 70 -35 0 c-34 0 -35 1 -35 40 0 39 -1 40 -35
40 -33 0 -35 2 -35 35 0 34 -1 35 -40 35 -39 0 -40 1 -40 35 0 33 -2 35 -35
35 -34 0 -35 1 -35 40 0 39 -1 40 -35 40 -33 0 -35 2 -35 35 l0 35 -75 0 -75
0 0 38 0 37 -330 0 -330 0 0 -37z"></path>
    </g>
  </symbol>
  <symbol xmlns="http://www.w3.org/2000/svg" viewBox="0 0 32 32" id="interface-essential-file-error">
    <title>interface-essential-file-error</title>
    <g>
      <path d="M3.05,32h25.9V7.62H27.43V6.1H25.91V4.57H24.38V3.05H22.86V1.52H21.33V0H3.05ZM4.57,1.52H19.81V9.14h7.62V30.48H4.57Z" fill="currentColor"></path>
      <polygon points="7.62 19.81 7.62 21.33 18.29 21.33 18.29 24.38 19.81 24.38 19.81 21.33 22.86 21.33 22.86 24.38 24.38 24.38 24.38 19.81 7.62 19.81" fill="currentColor"></polygon>
      <polygon points="22.86 12.19 21.33 12.19 21.33 13.71 19.81 13.71 19.81 15.24 21.33 15.24 21.33 16.76 22.86 16.76 22.86 15.24 24.38 15.24 24.38 13.71 22.86 13.71 22.86 12.19" fill="currentColor"></polygon>
      <rect x="19.81" y="24.38" width="3.05" height="1.52" fill="currentColor"></rect>
      <polygon points="9.14 16.76 10.67 16.76 10.67 15.24 12.19 15.24 12.19 13.71 10.67 13.71 10.67 12.19 9.14 12.19 9.14 13.71 7.62 13.71 7.62 15.24 9.14 15.24 9.14 16.76" fill="currentColor"></polygon>
    </g>
  </symbol>
  <symbol xmlns="http://www.w3.org/2000/svg" viewBox="0 0 32 32" id="interface-essential-note-music">
    <title>interface-essential-note-music</title>
    <g>
      <polygon points="28.185 6.86 25.135 6.86 25.135 8.38 28.185 8.38 28.185 20.57 25.135 20.57 25.135 22.1 23.615 22.1 23.615 25.14 25.135 25.14 25.135 26.67 28.185 26.67 28.185 25.14 29.715 25.14 29.715 0.76 25.135 0.76 25.135 2.29 28.185 2.29 28.185 6.86" fill="currentColor"></polygon>
      <rect x="20.565" y="8.38" width="4.57" height="1.53" fill="currentColor"></rect>
      <rect x="20.565" y="2.29" width="4.57" height="1.52" fill="currentColor"></rect>
      <rect x="15.995" y="9.91" width="4.57" height="1.52" fill="currentColor"></rect>
      <rect x="15.995" y="3.81" width="4.57" height="1.53" fill="currentColor"></rect>
      <rect x="11.425" y="11.43" width="4.57" height="1.52" fill="currentColor"></rect>
      <rect x="11.425" y="5.34" width="4.57" height="1.52" fill="currentColor"></rect>
      <polygon points="3.805 31.24 6.855 31.24 6.855 29.72 8.375 29.72 8.375 14.48 11.425 14.48 11.425 12.95 8.375 12.95 8.375 8.38 11.425 8.38 11.425 6.86 6.855 6.86 6.855 25.14 3.805 25.14 3.805 26.67 2.285 26.67 2.285 29.72 3.805 29.72 3.805 31.24" fill="currentColor"></polygon>
    </g>
  </symbol>
  <symbol xmlns="http://www.w3.org/2000/svg" viewBox="0 0 32 32" id="interface-essential-protect-rubber-ring">
    <title>interface-essential-protect-rubber-ring</title>
    <g>
      <polygon points="30.47 9.14 28.95 9.14 28.95 10.67 25.9 10.67 25.9 12.19 22.85 12.19 22.85 19.81 25.9 19.81 25.9 21.33 28.95 21.33 28.95 22.86 30.47 22.86 30.47 19.81 28.95 19.81 28.95 15.24 30.47 15.24 30.47 19.81 32 19.81 32 12.19 30.47 12.19 30.47 9.14" fill="currentColor"></polygon>
      <rect x="27.43" y="22.86" width="1.52" height="3.04" fill="currentColor"></rect>
      <rect x="27.43" y="6.1" width="1.52" height="3.04" fill="currentColor"></rect>
      <rect x="25.9" y="25.9" width="1.53" height="1.53" fill="currentColor"></rect>
      <rect x="25.9" y="4.57" width="1.53" height="1.53" fill="currentColor"></rect>
      <rect x="22.85" y="27.43" width="3.05" height="1.52" fill="currentColor"></rect>
      <rect x="22.85" y="3.05" width="3.05" height="1.52" fill="currentColor"></rect>
      <rect x="21.33" y="19.81" width="1.52" height="1.52" fill="currentColor"></rect>
      <rect x="21.33" y="10.67" width="1.52" height="1.52" fill="currentColor"></rect>
      <polygon points="21.33 25.9 19.81 25.9 19.81 22.86 12.19 22.86 12.19 25.9 10.66 25.9 10.66 28.95 9.14 28.95 9.14 30.48 12.19 30.48 12.19 32 19.81 32 19.81 30.48 22.85 30.48 22.85 28.95 21.33 28.95 21.33 25.9" fill="currentColor"></polygon>
      <rect x="19.81" y="21.33" width="1.52" height="1.53" fill="currentColor"></rect>
      <rect x="19.81" y="9.14" width="1.52" height="1.53" fill="currentColor"></rect>
      <rect x="10.66" y="21.33" width="1.53" height="1.53" fill="currentColor"></rect>
      <rect x="10.66" y="9.14" width="1.53" height="1.53" fill="currentColor"></rect>
      <polygon points="10.66 6.1 12.19 6.1 12.19 9.14 19.81 9.14 19.81 6.1 21.33 6.1 21.33 3.05 22.85 3.05 22.85 1.52 19.81 1.52 19.81 0 12.19 0 12.19 1.52 9.14 1.52 9.14 3.05 10.66 3.05 10.66 6.1" fill="currentColor"></polygon>
      <rect x="9.14" y="19.81" width="1.52" height="1.52" fill="currentColor"></rect>
      <rect x="9.14" y="10.67" width="1.52" height="1.52" fill="currentColor"></rect>
      <rect x="6.09" y="27.43" width="3.05" height="1.52" fill="currentColor"></rect>
      <rect x="6.09" y="3.05" width="3.05" height="1.52" fill="currentColor"></rect>
      <rect x="4.57" y="25.9" width="1.52" height="1.53" fill="currentColor"></rect>
      <rect x="4.57" y="4.57" width="1.52" height="1.53" fill="currentColor"></rect>
      <rect x="3.05" y="22.86" width="1.52" height="3.04" fill="currentColor"></rect>
      <polygon points="6.09 21.33 6.09 19.81 9.14 19.81 9.14 12.19 6.09 12.19 6.09 10.67 3.05 10.67 3.05 9.14 1.52 9.14 1.52 12.19 0 12.19 0 19.81 1.52 19.81 1.52 22.86 3.05 22.86 3.05 21.33 6.09 21.33" fill="currentColor"></polygon>
      <rect x="3.05" y="6.1" width="1.52" height="3.04" fill="currentColor"></rect>
    </g>
  </symbol>
  <symbol xmlns="http://www.w3.org/2000/svg" viewBox="0 0 32 32" id="linkedin-icon">
    <title>logo-linkedin</title>
    <g>
      <rect x="30.47" y="3.05" width="1.53" height="25.9" fill="currentColor"></rect>
      <rect x="28.95" y="28.95" width="1.52" height="1.53" fill="currentColor"></rect>
      <rect x="28.95" y="1.52" width="1.52" height="1.53" fill="currentColor"></rect>
      <rect x="27.42" y="4.57" width="1.53" height="22.86" fill="currentColor"></rect>
      <rect x="3.04" y="30.48" width="25.91" height="1.52" fill="currentColor"></rect>
      <rect x="4.57" y="27.43" width="22.85" height="1.52" fill="currentColor"></rect>
      <polygon points="22.85 15.24 21.33 15.24 21.33 13.71 18.28 13.71 18.28 15.24 16.76 15.24 16.76 13.71 13.71 13.71 13.71 22.86 16.76 22.86 16.76 18.29 18.28 18.29 18.28 16.76 19.81 16.76 19.81 18.29 21.33 18.29 21.33 22.86 24.38 22.86 24.38 16.76 22.85 16.76 22.85 15.24" fill="currentColor"></polygon>
      <rect x="7.61" y="13.71" width="3.05" height="9.15" fill="currentColor"></rect>
      <rect x="7.61" y="9.14" width="3.05" height="3.05" fill="currentColor"></rect>
      <rect x="4.57" y="3.05" width="22.85" height="1.52" fill="currentColor"></rect>
      <rect x="3.04" width="25.91" height="1.52" fill="currentColor"></rect>
      <rect x="3.04" y="4.57" width="1.53" height="22.86" fill="currentColor"></rect>
      <rect x="1.52" y="28.95" width="1.52" height="1.53" fill="currentColor"></rect>
      <rect x="1.52" y="1.52" width="1.52" height="1.53" fill="currentColor"></rect>
      <rect y="3.05" width="1.52" height="25.9" fill="currentColor"></rect>
    </g>
  </symbol>
  <symbol xmlns="http://www.w3.org/2000/svg" viewBox="0 0 32 32" id="link-icon">
    <title>interface-essential-share-2</title>
    <g>
      <polygon points="30.48 4.57 28.95 4.57 28.95 6.1 27.43 6.1 27.43 4.57 25.91 4.57 25.91 3.05 27.43 3.05 27.43 1.52 25.91 1.52 25.91 0 24.38 0 24.38 6.1 19.81 6.1 19.81 7.62 24.38 7.62 24.38 13.71 25.91 13.71 25.91 12.19 27.43 12.19 27.43 10.67 28.95 10.67 28.95 9.14 30.48 9.14 30.48 7.62 32 7.62 32 6.1 30.48 6.1 30.48 4.57" fill="currentColor"></polygon>
      <rect x="27.43" y="16.76" width="1.52" height="12.19" fill="currentColor"></rect>
      <rect x="27.43" y="3.05" width="1.52" height="1.52" fill="currentColor"></rect>
      <rect x="25.91" y="28.95" width="1.52" height="1.53" fill="currentColor"></rect>
      <rect x="3.05" y="30.48" width="22.86" height="1.52" fill="currentColor"></rect>
      <rect x="16.76" y="7.62" width="3.05" height="1.52" fill="currentColor"></rect>
      <rect x="15.24" y="9.14" width="1.52" height="1.53" fill="currentColor"></rect>
      <rect x="13.71" y="10.67" width="1.53" height="7.62" fill="currentColor"></rect>
      <rect x="3.05" y="3.05" width="15.24" height="1.52" fill="currentColor"></rect>
      <rect x="1.52" y="28.95" width="1.53" height="1.53" fill="currentColor"></rect>
      <rect x="1.52" y="4.57" width="1.53" height="1.53" fill="currentColor"></rect>
      <rect y="6.1" width="1.52" height="22.85" fill="currentColor"></rect>
    </g>
  </symbol>
  <symbol xmlns="http://www.w3.org/2000/svg" viewBox="0 0 32 32" id="man-icon">
    <title>music-headphones-human</title>
    <g>
      <rect x="29.715" y="12.955" width="1.52" height="6.09" fill="currentColor"></rect>
      <polygon points="9.905 12.955 11.425 12.955 11.425 11.425 12.955 11.425 12.955 9.905 19.045 9.905 19.045 11.425 20.575 11.425 20.575 9.905 25.145 9.905 25.145 11.425 26.665 11.425 26.665 23.615 28.195 23.615 28.195 20.575 29.715 20.575 29.715 19.045 28.195 19.045 28.195 12.955 29.715 12.955 29.715 11.425 28.195 11.425 28.195 5.335 26.665 5.335 26.665 6.855 25.145 6.855 25.145 5.335 22.095 5.335 22.095 3.805 11.425 3.805 11.425 5.335 9.905 5.335 9.905 6.855 8.385 6.855 8.385 9.905 6.855 9.905 6.855 5.335 5.335 5.335 5.335 9.905 3.815 9.905 3.815 11.425 9.905 11.425 9.905 12.955" fill="currentColor"></polygon>
      <rect x="25.145" y="23.615" width="1.52" height="1.53" fill="currentColor"></rect>
      <rect x="25.145" y="3.805" width="1.52" height="1.53" fill="currentColor"></rect>
      <rect x="23.615" y="20.575" width="1.53" height="1.52" fill="currentColor"></rect>
      <rect x="23.615" y="15.995" width="1.53" height="3.05" fill="currentColor"></rect>
      <rect x="23.615" y="2.285" width="1.53" height="1.52" fill="currentColor"></rect>
      <path d="M11.425,25.145V28.2H8.385v1.52H5.335v1.52h24.38v-1.52h-3.05V28.2h-3.05v-1.53h1.53v-1.52Zm10.67,4.57h-6.09V28.2h-3.05v-1.53H22.1Z" fill="currentColor"></path>
      <rect x="19.045" y="22.095" width="4.57" height="1.52" fill="currentColor"></rect>
      <rect x="17.525" y="20.575" width="1.52" height="1.52" fill="currentColor"></rect>
      <rect x="16.005" y="15.995" width="1.52" height="3.05" fill="currentColor"></rect>
      <rect x="16.005" y="11.425" width="3.04" height="1.53" fill="currentColor"></rect>
      <rect x="11.425" y="12.955" width="1.53" height="6.09" fill="currentColor"></rect>
      <rect x="9.905" y="0.765" width="13.71" height="1.52" fill="currentColor"></rect>
      <rect x="9.905" y="23.615" width="1.52" height="1.53" fill="currentColor"></rect>
      <rect x="9.905" y="19.045" width="1.52" height="1.53" fill="currentColor"></rect>
      <polygon points="3.815 20.575 3.815 22.095 8.385 22.095 8.385 23.615 9.905 23.615 9.905 20.575 3.815 20.575" fill="currentColor"></polygon>
      <rect x="8.385" y="2.285" width="1.52" height="1.52" fill="currentColor"></rect>
      <rect x="6.855" y="3.805" width="1.53" height="1.53" fill="currentColor"></rect>
      <rect x="5.335" y="12.955" width="1.52" height="1.52" fill="currentColor"></rect>
      <rect x="3.815" y="14.475" width="1.52" height="3.05" fill="currentColor"></rect>
      <rect x="2.285" y="19.045" width="1.53" height="1.53" fill="currentColor"></rect>
      <rect x="2.285" y="11.425" width="1.53" height="1.53" fill="currentColor"></rect>
      <rect x="0.765" y="12.955" width="1.52" height="6.09" fill="currentColor"></rect>
    </g>
  </symbol>
</svg>