<svg xmlns="http://www.w3.org/2000/svg" viewBox="0 0 32 32" height="48" width="48"><title>transportation-bicycle</title><g><rect x="30.47" y="16.76" width="1.53" height="7.62" fill="currentColor"></rect><rect x="28.95" y="24.38" width="1.52" height="1.52" fill="currentColor"></rect><rect x="28.95" y="15.24" width="1.52" height="1.52" fill="currentColor"></rect><rect x="21.33" y="25.9" width="7.62" height="1.53" fill="currentColor"></rect><rect x="24.38" y="19.81" width="1.52" height="1.52" fill="currentColor"></rect><rect x="19.81" y="24.38" width="1.52" height="1.52" fill="currentColor"></rect><rect x="19.81" y="15.24" width="1.52" height="1.52" fill="currentColor"></rect><rect x="16.76" y="4.57" width="4.57" height="1.52" fill="currentColor"></rect><polygon points="19.81 16.76 18.28 16.76 18.28 19.81 13.71 19.81 13.71 16.76 12.19 16.76 12.19 19.81 6.09 19.81 6.09 18.28 4.57 18.28 4.57 21.33 12.19 21.33 12.19 24.38 13.71 24.38 13.71 21.33 18.28 21.33 18.28 24.38 19.81 24.38 19.81 16.76" fill="currentColor"></polygon><rect x="10.66" y="24.38" width="1.53" height="1.52" fill="currentColor"></rect><rect x="10.66" y="15.24" width="1.53" height="1.52" fill="currentColor"></rect><rect x="3.05" y="25.9" width="7.61" height="1.53" fill="currentColor"></rect><rect x="6.09" y="16.76" width="1.53" height="1.52" fill="currentColor"></rect><polygon points="7.62 15.24 7.62 16.76 9.14 16.76 9.14 15.24 10.66 15.24 10.66 13.71 21.33 13.71 21.33 15.24 22.86 15.24 22.86 19.81 24.38 19.81 24.38 15.24 28.95 15.24 28.95 13.71 24.38 13.71 24.38 6.09 21.33 6.09 21.33 7.62 22.86 7.62 22.86 12.19 10.66 12.19 10.66 10.66 13.71 10.66 13.71 9.14 12.19 9.14 12.19 7.62 9.14 7.62 9.14 6.09 6.09 6.09 6.09 10.66 9.14 10.66 9.14 13.71 3.05 13.71 3.05 15.24 7.62 15.24" fill="currentColor"></polygon><rect x="1.52" y="24.38" width="1.53" height="1.52" fill="currentColor"></rect><rect x="1.52" y="15.24" width="1.53" height="1.52" fill="currentColor"></rect><rect y="16.76" width="1.52" height="7.62" fill="currentColor"></rect></g></svg>