<svg xmlns="http://www.w3.org/2000/svg" viewBox="0 0 32 32" height="48" width="48"><title>travel-wayfinding-beach-umbrella</title><g><polygon points="30.48 30.48 7.62 30.48 7.62 28.95 6.1 28.95 6.1 30.48 3.05 30.48 3.05 28.95 1.53 28.95 1.53 30.48 0 30.48 0 32 32 32 32 24.38 30.48 24.38 30.48 30.48" fill="currentColor"></polygon><rect x="25.91" y="25.9" width="3.04" height="3.05" fill="currentColor"></rect><rect x="24.38" y="22.86" width="6.1" height="1.52" fill="currentColor"></rect><rect x="25.91" y="4.57" width="1.52" height="3.05" fill="currentColor"></rect><rect x="22.86" y="27.43" width="1.52" height="1.52" fill="currentColor"></rect><rect x="22.86" y="24.38" width="1.52" height="1.52" fill="currentColor"></rect><rect x="22.86" y="7.62" width="3.05" height="1.52" fill="currentColor"></rect><rect x="22.86" y="3.05" width="3.05" height="1.52" fill="currentColor"></rect><rect x="21.34" y="22.86" width="1.52" height="1.52" fill="currentColor"></rect><rect x="19.81" y="27.43" width="1.53" height="1.52" fill="currentColor"></rect><polygon points="19.81 7.62 18.29 7.62 18.29 10.67 16.76 10.67 16.76 12.19 19.81 12.19 19.81 10.67 22.86 10.67 22.86 9.14 19.81 9.14 19.81 7.62" fill="currentColor"></polygon><rect x="19.81" y="1.52" width="3.05" height="1.53" fill="currentColor"></rect><rect x="18.29" y="24.38" width="1.52" height="1.52" fill="currentColor"></rect><rect x="16.76" y="4.57" width="1.53" height="3.05" fill="currentColor"></rect><rect x="13.72" y="25.9" width="3.04" height="3.05" fill="currentColor"></rect><polygon points="21.34 22.86 21.34 21.33 18.29 21.33 18.29 19.81 16.76 19.81 16.76 21.33 13.72 21.33 13.72 22.86 21.34 22.86" fill="currentColor"></polygon><rect x="15.24" y="16.76" width="1.52" height="3.05" fill="currentColor"></rect><rect x="13.72" y="3.05" width="3.04" height="1.52" fill="currentColor"></rect><polygon points="16.76 13.71 16.76 12.19 13.72 12.19 13.72 13.71 10.67 13.71 10.67 15.24 13.72 15.24 13.72 16.76 15.24 16.76 15.24 13.71 16.76 13.71" fill="currentColor"></polygon><rect x="10.67" y="22.86" width="3.05" height="1.52" fill="currentColor"></rect><rect x="10.67" y="27.43" width="1.52" height="1.52" fill="currentColor"></rect><rect x="9.14" y="24.38" width="1.53" height="1.52" fill="currentColor"></rect><polygon points="9.14 12.19 7.62 12.19 7.62 16.76 10.67 16.76 10.67 15.24 9.14 15.24 9.14 12.19" fill="currentColor"></polygon><rect x="4.57" y="25.9" width="4.57" height="1.53" fill="currentColor"></rect><rect x="6.1" y="7.62" width="1.52" height="4.57" fill="currentColor"></rect><polygon points="7.62 7.62 9.14 7.62 9.14 3.05 13.72 3.05 13.72 1.52 19.81 1.52 19.81 0 10.67 0 10.67 1.52 7.62 1.52 7.62 3.05 4.57 3.05 4.57 4.57 7.62 4.57 7.62 7.62" fill="currentColor"></polygon><rect x="4.57" y="16.76" width="3.05" height="1.52" fill="currentColor"></rect><rect x="3.05" y="27.43" width="1.52" height="1.52" fill="currentColor"></rect><rect x="3.05" y="4.57" width="1.52" height="3.05" fill="currentColor"></rect><rect x="1.53" y="18.28" width="3.04" height="1.53" fill="currentColor"></rect><rect x="1.53" y="7.62" width="1.52" height="4.57" fill="currentColor"></rect><rect y="12.19" width="1.53" height="6.09" fill="currentColor"></rect></g></svg>