<svg xmlns="http://www.w3.org/2000/svg" viewBox="0 0 32 32" height="48" width="48"><title>video-movies-set-equipment</title><g><path d="M25.14,0V1.52h3.05V3.05h1.52V4.57H26.67V3.05H25.14V1.52H19.05V3.05h3.04V4.57h1.53V6.09H20.57V4.57H19.05V3.05h-6.1V4.57H16V6.09h1.52V7.62H14.48V6.09H12.95V4.57H6.86V6.09H9.9V7.62h1.53V9.14H8.38V7.62H6.86V6.09H.76V30.47H2.29V19.81H29.71V30.47h1.53V13.71H2.29V12.19H6.86V10.66h6.09V9.14h6.1V7.62h6.09V6.09h6.1V0Zm0,16.76h1.53V15.24h3.04v1.52H28.19v1.52H25.14Zm-7.62,0h1.53V15.24h3.04v1.52H20.57v1.52H17.52Zm-7.62,0h1.53V15.24h3.05v1.52H12.95v1.52H9.9Zm-6.09,0V15.24H6.86v1.52H5.33v1.52H2.29V16.76Zm1.52-6.1H2.29V7.62H3.81V9.14H5.33Z" fill="currentColor"></path><rect x="2.29" y="30.47" width="27.42" height="1.53" fill="currentColor"></rect><polygon points="26.67 22.86 25.14 22.86 25.14 24.38 23.62 24.38 23.62 22.86 22.09 22.86 22.09 24.38 20.57 24.38 20.57 25.9 22.09 25.9 22.09 27.43 23.62 27.43 23.62 28.95 25.14 28.95 25.14 27.43 26.67 27.43 26.67 25.9 28.19 25.9 28.19 24.38 26.67 24.38 26.67 22.86" fill="currentColor"></polygon><rect x="6.86" y="25.9" width="10.66" height="1.53" fill="currentColor"></rect><rect x="6.86" y="22.86" width="10.66" height="1.52" fill="currentColor"></rect></g></svg>